<svg width="430" height="242" viewBox="0 0 430 242" fill="none" xmlns="http://www.w3.org/2000/svg">
<g filter="url(#filter0_d_0_616)">
<rect x="3" y="3" width="424" height="236" rx="8" fill="#FFF4E7"/>
</g>
<rect x="171.5" y="103.5" width="87" height="99" rx="7.5" fill="white" stroke="#2D356B"/>
<path d="M207.704 129.88V131.368H204.744V141H202.92V131.368H199.944V129.88H207.704ZM218.432 129.88V141H216.608V136.136H211.376V141H209.552V129.88H211.376V134.648H216.608V129.88H218.432ZM222.641 129.88V136.968C222.641 137.811 222.859 138.445 223.297 138.872C223.745 139.299 224.363 139.512 225.153 139.512C225.953 139.512 226.571 139.299 227.009 138.872C227.457 138.445 227.681 137.811 227.681 136.968V129.88H229.505V136.936C229.505 137.843 229.307 138.611 228.913 139.24C228.518 139.869 227.99 140.339 227.329 140.648C226.667 140.957 225.937 141.112 225.137 141.112C224.337 141.112 223.606 140.957 222.945 140.648C222.294 140.339 221.777 139.869 221.393 139.24C221.009 138.611 220.817 137.843 220.817 136.936V129.88H222.641Z" fill="#2D356B"/>
<path d="M206.31 157.88V169H204.486V161.384L201.094 169H199.83L196.422 161.384V169H194.598V157.88H196.566L200.47 166.6L204.358 157.88H206.31ZM208.1 164.552C208.1 163.667 208.281 162.883 208.644 162.2C209.017 161.517 209.518 160.989 210.148 160.616C210.788 160.232 211.492 160.04 212.26 160.04C212.953 160.04 213.556 160.179 214.068 160.456C214.59 160.723 215.006 161.059 215.316 161.464V160.184H217.156V169H215.316V167.688C215.006 168.104 214.585 168.451 214.052 168.728C213.518 169.005 212.91 169.144 212.228 169.144C211.47 169.144 210.777 168.952 210.148 168.568C209.518 168.173 209.017 167.629 208.644 166.936C208.281 166.232 208.1 165.437 208.1 164.552ZM215.316 164.584C215.316 163.976 215.188 163.448 214.932 163C214.686 162.552 214.361 162.211 213.956 161.976C213.55 161.741 213.113 161.624 212.644 161.624C212.174 161.624 211.737 161.741 211.332 161.976C210.926 162.2 210.596 162.536 210.34 162.984C210.094 163.421 209.972 163.944 209.972 164.552C209.972 165.16 210.094 165.693 210.34 166.152C210.596 166.611 210.926 166.963 211.332 167.208C211.748 167.443 212.185 167.56 212.644 167.56C213.113 167.56 213.55 167.443 213.956 167.208C214.361 166.973 214.686 166.632 214.932 166.184C215.188 165.725 215.316 165.192 215.316 164.584ZM221.376 161.464C221.642 161.016 221.994 160.669 222.432 160.424C222.88 160.168 223.408 160.04 224.016 160.04V161.928H223.552C222.837 161.928 222.293 162.109 221.92 162.472C221.557 162.835 221.376 163.464 221.376 164.36V169H219.552V160.184H221.376V161.464ZM237 158.744L232.552 169H230.712L235.208 158.936H229.288V157.384H237V158.744Z" fill="#2D356B"/>
<rect x="287.5" y="103.5" width="87" height="99" rx="7.5" fill="white" stroke="#2D356B"/>
<path d="M327.963 129.88V131.368H323.243V134.648H326.923V136.136H323.243V141H321.419V129.88H327.963ZM335.429 141L332.869 136.552H331.477V141H329.653V129.88H333.493C334.346 129.88 335.066 130.029 335.653 130.328C336.25 130.627 336.693 131.027 336.981 131.528C337.28 132.029 337.429 132.589 337.429 133.208C337.429 133.933 337.216 134.595 336.789 135.192C336.373 135.779 335.728 136.179 334.853 136.392L337.605 141H335.429ZM331.477 135.096H333.493C334.176 135.096 334.688 134.925 335.029 134.584C335.381 134.243 335.557 133.784 335.557 133.208C335.557 132.632 335.386 132.184 335.045 131.864C334.704 131.533 334.186 131.368 333.493 131.368H331.477V135.096ZM341.587 129.88V141H339.763V129.88H341.587Z" fill="#2D356B"/>
<path d="M321.185 157.88V169H319.361V161.384L315.969 169H314.705L311.297 161.384V169H309.473V157.88H311.441L315.345 166.6L319.233 157.88H321.185ZM322.975 164.552C322.975 163.667 323.156 162.883 323.519 162.2C323.892 161.517 324.393 160.989 325.023 160.616C325.663 160.232 326.367 160.04 327.135 160.04C327.828 160.04 328.431 160.179 328.943 160.456C329.465 160.723 329.881 161.059 330.191 161.464V160.184H332.031V169H330.191V167.688C329.881 168.104 329.46 168.451 328.927 168.728C328.393 169.005 327.785 169.144 327.103 169.144C326.345 169.144 325.652 168.952 325.023 168.568C324.393 168.173 323.892 167.629 323.519 166.936C323.156 166.232 322.975 165.437 322.975 164.552ZM330.191 164.584C330.191 163.976 330.063 163.448 329.807 163C329.561 162.552 329.236 162.211 328.831 161.976C328.425 161.741 327.988 161.624 327.519 161.624C327.049 161.624 326.612 161.741 326.207 161.976C325.801 162.2 325.471 162.536 325.215 162.984C324.969 163.421 324.847 163.944 324.847 164.552C324.847 165.16 324.969 165.693 325.215 166.152C325.471 166.611 325.801 166.963 326.207 167.208C326.623 167.443 327.06 167.56 327.519 167.56C327.988 167.56 328.425 167.443 328.831 167.208C329.236 166.973 329.561 166.632 329.807 166.184C330.063 165.725 330.191 165.192 330.191 164.584ZM336.251 161.464C336.517 161.016 336.869 160.669 337.307 160.424C337.755 160.168 338.283 160.04 338.891 160.04V161.928H338.427C337.712 161.928 337.168 162.109 336.795 162.472C336.432 162.835 336.251 163.464 336.251 164.36V169H334.427V160.184H336.251V161.464ZM346.451 162.904C345.342 162.349 344.787 161.475 344.787 160.28C344.787 159.704 344.931 159.176 345.219 158.696C345.507 158.216 345.939 157.837 346.515 157.56C347.091 157.272 347.795 157.128 348.627 157.128C349.449 157.128 350.147 157.272 350.723 157.56C351.31 157.837 351.747 158.216 352.035 158.696C352.323 159.176 352.467 159.704 352.467 160.28C352.467 160.877 352.313 161.405 352.003 161.864C351.705 162.312 351.305 162.659 350.803 162.904C351.411 163.128 351.891 163.496 352.243 164.008C352.595 164.509 352.771 165.101 352.771 165.784C352.771 166.477 352.595 167.091 352.243 167.624C351.891 168.157 351.401 168.568 350.771 168.856C350.142 169.144 349.427 169.288 348.627 169.288C347.827 169.288 347.113 169.144 346.483 168.856C345.865 168.568 345.379 168.157 345.027 167.624C344.675 167.091 344.499 166.477 344.499 165.784C344.499 165.091 344.675 164.493 345.027 163.992C345.379 163.491 345.854 163.128 346.451 162.904ZM350.723 160.504C350.723 159.907 350.537 159.448 350.163 159.128C349.79 158.808 349.278 158.648 348.627 158.648C347.987 158.648 347.481 158.808 347.107 159.128C346.734 159.448 346.547 159.912 346.547 160.52C346.547 161.053 346.739 161.491 347.123 161.832C347.518 162.163 348.019 162.328 348.627 162.328C349.235 162.328 349.737 162.157 350.131 161.816C350.526 161.475 350.723 161.037 350.723 160.504ZM348.627 163.704C347.923 163.704 347.347 163.88 346.899 164.232C346.462 164.573 346.243 165.069 346.243 165.72C346.243 166.328 346.457 166.824 346.883 167.208C347.31 167.581 347.891 167.768 348.627 167.768C349.353 167.768 349.923 167.576 350.339 167.192C350.766 166.808 350.979 166.317 350.979 165.72C350.979 165.08 350.761 164.584 350.323 164.232C349.897 163.88 349.331 163.704 348.627 163.704Z" fill="#2D356B"/>
<rect x="55.5" y="103.5" width="87" height="99" rx="7.5" fill="white" stroke="#2D356B"/>
<path d="M96.8206 129.88L93.5246 141H91.4606L89.1246 132.584L86.6446 141L84.5966 141.016L81.4446 129.88H83.3806L85.6846 138.936L88.1806 129.88H90.2286L92.5486 138.888L94.8686 129.88H96.8206ZM100.149 131.352V134.616H103.989V136.104H100.149V139.512H104.469V141H98.325V129.864H104.469V131.352H100.149ZM110.348 129.88C111.532 129.88 112.566 130.109 113.452 130.568C114.348 131.016 115.036 131.667 115.516 132.52C116.006 133.363 116.252 134.349 116.252 135.48C116.252 136.611 116.006 137.592 115.516 138.424C115.036 139.256 114.348 139.896 113.452 140.344C112.566 140.781 111.532 141 110.348 141H106.716V129.88H110.348ZM110.348 139.512C111.649 139.512 112.646 139.16 113.34 138.456C114.033 137.752 114.38 136.76 114.38 135.48C114.38 134.189 114.033 133.181 113.34 132.456C112.646 131.731 111.649 131.368 110.348 131.368H108.54V139.512H110.348Z" fill="#2D356B"/>
<path d="M89.1542 157.88V169H87.3302V161.384L83.9382 169H82.6742L79.2662 161.384V169H77.4422V157.88H79.4102L83.3142 166.6L87.2022 157.88H89.1542ZM90.9436 164.552C90.9436 163.667 91.1249 162.883 91.4876 162.2C91.8609 161.517 92.3622 160.989 92.9916 160.616C93.6316 160.232 94.3356 160.04 95.1036 160.04C95.7969 160.04 96.3996 160.179 96.9116 160.456C97.4342 160.723 97.8502 161.059 98.1596 161.464V160.184H99.9996V169H98.1596V167.688C97.8502 168.104 97.4289 168.451 96.8956 168.728C96.3622 169.005 95.7542 169.144 95.0716 169.144C94.3142 169.144 93.6209 168.952 92.9916 168.568C92.3622 168.173 91.8609 167.629 91.4876 166.936C91.1249 166.232 90.9436 165.437 90.9436 164.552ZM98.1596 164.584C98.1596 163.976 98.0316 163.448 97.7756 163C97.5302 162.552 97.2049 162.211 96.7996 161.976C96.3942 161.741 95.9569 161.624 95.4876 161.624C95.0182 161.624 94.5809 161.741 94.1756 161.976C93.7702 162.2 93.4396 162.536 93.1836 162.984C92.9382 163.421 92.8156 163.944 92.8156 164.552C92.8156 165.16 92.9382 165.693 93.1836 166.152C93.4396 166.611 93.7702 166.963 94.1756 167.208C94.5916 167.443 95.0289 167.56 95.4876 167.56C95.9569 167.56 96.3942 167.443 96.7996 167.208C97.2049 166.973 97.5302 166.632 97.7756 166.184C98.0316 165.725 98.1596 165.192 98.1596 164.584ZM104.219 161.464C104.486 161.016 104.838 160.669 105.275 160.424C105.723 160.168 106.251 160.04 106.859 160.04V161.928H106.395C105.681 161.928 105.137 162.109 104.763 162.472C104.401 162.835 104.219 163.464 104.219 164.36V169H102.395V160.184H104.219V161.464ZM118.724 160.04C118.607 159.549 118.394 159.181 118.084 158.936C117.775 158.691 117.343 158.568 116.788 158.568C115.946 158.568 115.316 158.893 114.9 159.544C114.484 160.184 114.266 161.251 114.244 162.744C114.522 162.275 114.927 161.912 115.46 161.656C115.994 161.4 116.57 161.272 117.188 161.272C117.892 161.272 118.511 161.427 119.044 161.736C119.588 162.035 120.01 162.472 120.308 163.048C120.618 163.624 120.772 164.312 120.772 165.112C120.772 165.859 120.623 166.525 120.324 167.112C120.036 167.699 119.604 168.163 119.028 168.504C118.452 168.835 117.759 169 116.948 169C115.85 169 114.986 168.76 114.356 168.28C113.738 167.789 113.3 167.101 113.044 166.216C112.799 165.331 112.676 164.227 112.676 162.904C112.676 159 114.052 157.048 116.804 157.048C117.871 157.048 118.708 157.336 119.316 157.912C119.935 158.488 120.298 159.197 120.404 160.04H118.724ZM116.788 162.808C116.138 162.808 115.583 163.005 115.124 163.4C114.676 163.784 114.452 164.344 114.452 165.08C114.452 165.816 114.66 166.403 115.076 166.84C115.503 167.267 116.095 167.48 116.852 167.48C117.524 167.48 118.052 167.272 118.436 166.856C118.831 166.44 119.028 165.885 119.028 165.192C119.028 164.467 118.836 163.891 118.452 163.464C118.079 163.027 117.524 162.808 116.788 162.808Z" fill="#2D356B"/>
<path d="M138 37.88L134.704 49H132.64L130.304 40.584L127.824 49L125.776 49.016L122.624 37.88H124.56L126.864 46.936L129.36 37.88H131.408L133.728 46.888L136.048 37.88H138ZM144.065 40.04C144.737 40.04 145.334 40.184 145.857 40.472C146.39 40.76 146.806 41.1867 147.105 41.752C147.414 42.3173 147.569 43 147.569 43.8V49H145.761V44.072C145.761 43.2827 145.563 42.68 145.169 42.264C144.774 41.8373 144.235 41.624 143.553 41.624C142.87 41.624 142.326 41.8373 141.921 42.264C141.526 42.68 141.329 43.2827 141.329 44.072V49H139.505V37.16H141.329V41.208C141.638 40.8347 142.027 40.5467 142.497 40.344C142.977 40.1413 143.499 40.04 144.065 40.04ZM157.975 44.376C157.975 44.7067 157.954 45.0053 157.911 45.272H151.175C151.229 45.976 151.49 46.5413 151.959 46.968C152.429 47.3947 153.005 47.608 153.687 47.608C154.669 47.608 155.362 47.1973 155.767 46.376H157.735C157.469 47.1867 156.983 47.8533 156.279 48.376C155.586 48.888 154.722 49.144 153.687 49.144C152.845 49.144 152.087 48.9573 151.415 48.584C150.754 48.2 150.231 47.6667 149.847 46.984C149.474 46.2907 149.287 45.4907 149.287 44.584C149.287 43.6773 149.469 42.8827 149.831 42.2C150.205 41.5067 150.722 40.9733 151.383 40.6C152.055 40.2267 152.823 40.04 153.687 40.04C154.519 40.04 155.261 40.2213 155.911 40.584C156.562 40.9467 157.069 41.4587 157.431 42.12C157.794 42.7707 157.975 43.5227 157.975 44.376ZM156.071 43.8C156.061 43.128 155.821 42.5893 155.351 42.184C154.882 41.7787 154.301 41.576 153.607 41.576C152.978 41.576 152.439 41.7787 151.991 42.184C151.543 42.5787 151.277 43.1173 151.191 43.8H156.071ZM164.218 40.04C164.912 40.04 165.53 40.184 166.074 40.472C166.629 40.76 167.061 41.1867 167.37 41.752C167.68 42.3173 167.834 43 167.834 43.8V49H166.026V44.072C166.026 43.2827 165.829 42.68 165.434 42.264C165.04 41.8373 164.501 41.624 163.818 41.624C163.136 41.624 162.592 41.8373 162.186 42.264C161.792 42.68 161.594 43.2827 161.594 44.072V49H159.77V40.184H161.594V41.192C161.893 40.8293 162.272 40.5467 162.73 40.344C163.2 40.1413 163.696 40.04 164.218 40.04ZM186.157 40.184L183.421 49H181.501L179.725 42.488L177.949 49H176.029L173.277 40.184H175.133L176.973 47.272L178.845 40.184H180.749L182.541 47.24L184.365 40.184H186.157ZM191.344 49.144C190.512 49.144 189.76 48.9573 189.088 48.584C188.416 48.2 187.888 47.6667 187.504 46.984C187.12 46.2907 186.928 45.4907 186.928 44.584C186.928 43.688 187.126 42.8933 187.52 42.2C187.915 41.5067 188.454 40.9733 189.136 40.6C189.819 40.2267 190.582 40.04 191.424 40.04C192.267 40.04 193.03 40.2267 193.712 40.6C194.395 40.9733 194.934 41.5067 195.328 42.2C195.723 42.8933 195.92 43.688 195.92 44.584C195.92 45.48 195.718 46.2747 195.312 46.968C194.907 47.6613 194.352 48.2 193.648 48.584C192.955 48.9573 192.187 49.144 191.344 49.144ZM191.344 47.56C191.814 47.56 192.251 47.448 192.656 47.224C193.072 47 193.408 46.664 193.664 46.216C193.92 45.768 194.048 45.224 194.048 44.584C194.048 43.944 193.926 43.4053 193.68 42.968C193.435 42.52 193.11 42.184 192.704 41.96C192.299 41.736 191.862 41.624 191.392 41.624C190.923 41.624 190.486 41.736 190.08 41.96C189.686 42.184 189.371 42.52 189.136 42.968C188.902 43.4053 188.784 43.944 188.784 44.584C188.784 45.5333 189.024 46.2693 189.504 46.792C189.995 47.304 190.608 47.56 191.344 47.56ZM205.707 40.184V49H203.883V47.96C203.595 48.3227 203.217 48.6107 202.747 48.824C202.289 49.0267 201.798 49.128 201.275 49.128C200.582 49.128 199.958 48.984 199.403 48.696C198.859 48.408 198.427 47.9813 198.107 47.416C197.798 46.8507 197.643 46.168 197.643 45.368V40.184H199.451V45.096C199.451 45.8853 199.649 46.4933 200.043 46.92C200.438 47.336 200.977 47.544 201.659 47.544C202.342 47.544 202.881 47.336 203.275 46.92C203.681 46.4933 203.883 45.8853 203.883 45.096V40.184H205.707ZM209.938 37.16V49H208.114V37.16H209.938ZM211.725 44.552C211.725 43.6667 211.906 42.8827 212.269 42.2C212.642 41.5173 213.143 40.9893 213.773 40.616C214.413 40.232 215.122 40.04 215.901 40.04C216.477 40.04 217.042 40.168 217.597 40.424C218.162 40.6693 218.61 41 218.941 41.416V37.16H220.781V49H218.941V47.672C218.642 48.0987 218.226 48.4507 217.693 48.728C217.17 49.0053 216.567 49.144 215.885 49.144C215.117 49.144 214.413 48.952 213.773 48.568C213.143 48.1733 212.642 47.6293 212.269 46.936C211.906 46.232 211.725 45.4373 211.725 44.552ZM218.941 44.584C218.941 43.976 218.813 43.448 218.557 43C218.311 42.552 217.986 42.2107 217.581 41.976C217.175 41.7413 216.738 41.624 216.269 41.624C215.799 41.624 215.362 41.7413 214.957 41.976C214.551 42.2 214.221 42.536 213.965 42.984C213.719 43.4213 213.597 43.944 213.597 44.552C213.597 45.16 213.719 45.6933 213.965 46.152C214.221 46.6107 214.551 46.9627 214.957 47.208C215.373 47.4427 215.81 47.56 216.269 47.56C216.738 47.56 217.175 47.4427 217.581 47.208C217.986 46.9733 218.311 46.632 218.557 46.184C218.813 45.7253 218.941 45.192 218.941 44.584ZM235.269 40.184L229.861 53.144H227.973L229.765 48.856L226.293 40.184H228.325L230.805 46.904L233.381 40.184H235.269ZM240.469 49.144C239.637 49.144 238.885 48.9573 238.213 48.584C237.541 48.2 237.013 47.6667 236.629 46.984C236.245 46.2907 236.053 45.4907 236.053 44.584C236.053 43.688 236.251 42.8933 236.645 42.2C237.04 41.5067 237.579 40.9733 238.261 40.6C238.944 40.2267 239.707 40.04 240.549 40.04C241.392 40.04 242.155 40.2267 242.837 40.6C243.52 40.9733 244.059 41.5067 244.453 42.2C244.848 42.8933 245.045 43.688 245.045 44.584C245.045 45.48 244.843 46.2747 244.437 46.968C244.032 47.6613 243.477 48.2 242.773 48.584C242.08 48.9573 241.312 49.144 240.469 49.144ZM240.469 47.56C240.939 47.56 241.376 47.448 241.781 47.224C242.197 47 242.533 46.664 242.789 46.216C243.045 45.768 243.173 45.224 243.173 44.584C243.173 43.944 243.051 43.4053 242.805 42.968C242.56 42.52 242.235 42.184 241.829 41.96C241.424 41.736 240.987 41.624 240.517 41.624C240.048 41.624 239.611 41.736 239.205 41.96C238.811 42.184 238.496 42.52 238.261 42.968C238.027 43.4053 237.909 43.944 237.909 44.584C237.909 45.5333 238.149 46.2693 238.629 46.792C239.12 47.304 239.733 47.56 240.469 47.56ZM254.832 40.184V49H253.008V47.96C252.72 48.3227 252.342 48.6107 251.872 48.824C251.414 49.0267 250.923 49.128 250.4 49.128C249.707 49.128 249.083 48.984 248.528 48.696C247.984 48.408 247.552 47.9813 247.232 47.416C246.923 46.8507 246.768 46.168 246.768 45.368V40.184H248.576V45.096C248.576 45.8853 248.774 46.4933 249.168 46.92C249.563 47.336 250.102 47.544 250.784 47.544C251.467 47.544 252.006 47.336 252.4 46.92C252.806 46.4933 253.008 45.8853 253.008 45.096V40.184H254.832ZM263.219 37.16V49H261.395V37.16H263.219ZM266.542 39.016C266.211 39.016 265.934 38.904 265.71 38.68C265.486 38.456 265.374 38.1787 265.374 37.848C265.374 37.5173 265.486 37.24 265.71 37.016C265.934 36.792 266.211 36.68 266.542 36.68C266.862 36.68 267.134 36.792 267.358 37.016C267.582 37.24 267.694 37.5173 267.694 37.848C267.694 38.1787 267.582 38.456 267.358 38.68C267.134 38.904 266.862 39.016 266.542 39.016ZM267.438 40.184V49H265.614V40.184H267.438ZM273.321 44.6L277.385 49H274.921L271.657 45.208V49H269.833V37.16H271.657V44.04L274.857 40.184H277.385L273.321 44.6ZM286.772 44.376C286.772 44.7067 286.751 45.0053 286.708 45.272H279.972C280.026 45.976 280.287 46.5413 280.756 46.968C281.226 47.3947 281.802 47.608 282.484 47.608C283.466 47.608 284.159 47.1973 284.564 46.376H286.532C286.266 47.1867 285.78 47.8533 285.076 48.376C284.383 48.888 283.519 49.144 282.484 49.144C281.642 49.144 280.884 48.9573 280.212 48.584C279.551 48.2 279.028 47.6667 278.644 46.984C278.271 46.2907 278.084 45.4907 278.084 44.584C278.084 43.6773 278.266 42.8827 278.628 42.2C279.002 41.5067 279.519 40.9733 280.18 40.6C280.852 40.2267 281.62 40.04 282.484 40.04C283.316 40.04 284.058 40.2213 284.708 40.584C285.359 40.9467 285.866 41.4587 286.228 42.12C286.591 42.7707 286.772 43.5227 286.772 44.376ZM284.868 43.8C284.858 43.128 284.618 42.5893 284.148 42.184C283.679 41.7787 283.098 41.576 282.404 41.576C281.775 41.576 281.236 41.7787 280.788 42.184C280.34 42.5787 280.074 43.1173 279.988 43.8H284.868ZM294.851 41.672V46.552C294.851 46.8827 294.926 47.1227 295.075 47.272C295.235 47.4107 295.502 47.48 295.875 47.48H296.995V49H295.555C294.734 49 294.105 48.808 293.667 48.424C293.23 48.04 293.011 47.416 293.011 46.552V41.672H291.971V40.184H293.011V37.992H294.851V40.184H296.995V41.672H294.851ZM302.501 49.144C301.669 49.144 300.917 48.9573 300.245 48.584C299.573 48.2 299.045 47.6667 298.661 46.984C298.277 46.2907 298.085 45.4907 298.085 44.584C298.085 43.688 298.282 42.8933 298.677 42.2C299.071 41.5067 299.61 40.9733 300.293 40.6C300.975 40.2267 301.738 40.04 302.581 40.04C303.423 40.04 304.186 40.2267 304.869 40.6C305.551 40.9733 306.09 41.5067 306.485 42.2C306.879 42.8933 307.077 43.688 307.077 44.584C307.077 45.48 306.874 46.2747 306.469 46.968C306.063 47.6613 305.509 48.2 304.805 48.584C304.111 48.9573 303.343 49.144 302.501 49.144ZM302.501 47.56C302.97 47.56 303.407 47.448 303.813 47.224C304.229 47 304.565 46.664 304.821 46.216C305.077 45.768 305.205 45.224 305.205 44.584C305.205 43.944 305.082 43.4053 304.837 42.968C304.591 42.52 304.266 42.184 303.861 41.96C303.455 41.736 303.018 41.624 302.549 41.624C302.079 41.624 301.642 41.736 301.237 41.96C300.842 42.184 300.527 42.52 300.293 42.968C300.058 43.4053 299.941 43.944 299.941 44.584C299.941 45.5333 300.181 46.2693 300.661 46.792C301.151 47.304 301.765 47.56 302.501 47.56ZM146.525 73.144C145.832 73.144 145.208 73.0213 144.653 72.776C144.109 72.52 143.677 72.1787 143.357 71.752C143.037 71.3147 142.866 70.8293 142.845 70.296H144.733C144.765 70.6693 144.941 70.984 145.261 71.24C145.592 71.4853 146.002 71.608 146.493 71.608C147.005 71.608 147.4 71.512 147.677 71.32C147.965 71.1173 148.109 70.8613 148.109 70.552C148.109 70.2213 147.949 69.976 147.629 69.816C147.32 69.656 146.824 69.48 146.141 69.288C145.48 69.1067 144.941 68.9307 144.525 68.76C144.109 68.5893 143.746 68.328 143.437 67.976C143.138 67.624 142.989 67.16 142.989 66.584C142.989 66.1147 143.128 65.688 143.405 65.304C143.682 64.9093 144.077 64.6 144.589 64.376C145.112 64.152 145.709 64.04 146.381 64.04C147.384 64.04 148.189 64.296 148.797 64.808C149.416 65.3093 149.746 65.9973 149.789 66.872H147.965C147.933 66.4773 147.773 66.1627 147.485 65.928C147.197 65.6933 146.808 65.576 146.317 65.576C145.837 65.576 145.469 65.6667 145.213 65.848C144.957 66.0293 144.829 66.2693 144.829 66.568C144.829 66.8027 144.914 67 145.085 67.16C145.256 67.32 145.464 67.448 145.709 67.544C145.954 67.6293 146.317 67.7413 146.797 67.88C147.437 68.0507 147.96 68.2267 148.365 68.408C148.781 68.5787 149.138 68.8347 149.437 69.176C149.736 69.5173 149.89 69.9707 149.901 70.536C149.901 71.0373 149.762 71.4853 149.485 71.88C149.208 72.2747 148.813 72.584 148.301 72.808C147.8 73.032 147.208 73.144 146.525 73.144ZM151.264 68.584C151.264 67.6773 151.445 66.8827 151.808 66.2C152.181 65.5067 152.693 64.9733 153.344 64.6C153.995 64.2267 154.741 64.04 155.584 64.04C156.651 64.04 157.531 64.296 158.224 64.808C158.928 65.3093 159.403 66.0293 159.648 66.968H157.68C157.52 66.5307 157.264 66.1893 156.912 65.944C156.56 65.6987 156.117 65.576 155.584 65.576C154.837 65.576 154.24 65.8427 153.792 66.376C153.355 66.8987 153.136 67.6347 153.136 68.584C153.136 69.5333 153.355 70.2747 153.792 70.808C154.24 71.3413 154.837 71.608 155.584 71.608C156.64 71.608 157.339 71.144 157.68 70.216H159.648C159.392 71.112 158.912 71.8267 158.208 72.36C157.504 72.8827 156.629 73.144 155.584 73.144C154.741 73.144 153.995 72.9573 153.344 72.584C152.693 72.2 152.181 71.6667 151.808 70.984C151.445 70.2907 151.264 69.4907 151.264 68.584ZM166.026 64.04C166.698 64.04 167.295 64.184 167.818 64.472C168.351 64.76 168.767 65.1867 169.066 65.752C169.375 66.3173 169.53 67 169.53 67.8V73H167.722V68.072C167.722 67.2827 167.524 66.68 167.13 66.264C166.735 65.8373 166.196 65.624 165.514 65.624C164.831 65.624 164.287 65.8373 163.882 66.264C163.487 66.68 163.29 67.2827 163.29 68.072V73H161.466V61.16H163.29V65.208C163.599 64.8347 163.988 64.5467 164.458 64.344C164.938 64.1413 165.46 64.04 166.026 64.04ZM179.936 68.376C179.936 68.7067 179.915 69.0053 179.872 69.272H173.136C173.19 69.976 173.451 70.5413 173.92 70.968C174.39 71.3947 174.966 71.608 175.648 71.608C176.63 71.608 177.323 71.1973 177.728 70.376H179.696C179.43 71.1867 178.944 71.8533 178.24 72.376C177.547 72.888 176.683 73.144 175.648 73.144C174.806 73.144 174.048 72.9573 173.376 72.584C172.715 72.2 172.192 71.6667 171.808 70.984C171.435 70.2907 171.248 69.4907 171.248 68.584C171.248 67.6773 171.43 66.8827 171.792 66.2C172.166 65.5067 172.683 64.9733 173.344 64.6C174.016 64.2267 174.784 64.04 175.648 64.04C176.48 64.04 177.222 64.2213 177.872 64.584C178.523 64.9467 179.03 65.4587 179.392 66.12C179.755 66.7707 179.936 67.5227 179.936 68.376ZM178.032 67.8C178.022 67.128 177.782 66.5893 177.312 66.184C176.843 65.7787 176.262 65.576 175.568 65.576C174.939 65.576 174.4 65.7787 173.952 66.184C173.504 66.5787 173.238 67.1173 173.152 67.8H178.032ZM181.123 68.552C181.123 67.6667 181.305 66.8827 181.667 66.2C182.041 65.5173 182.542 64.9893 183.171 64.616C183.811 64.232 184.521 64.04 185.299 64.04C185.875 64.04 186.441 64.168 186.995 64.424C187.561 64.6693 188.009 65 188.339 65.416V61.16H190.179V73H188.339V71.672C188.041 72.0987 187.625 72.4507 187.091 72.728C186.569 73.0053 185.966 73.144 185.283 73.144C184.515 73.144 183.811 72.952 183.171 72.568C182.542 72.1733 182.041 71.6293 181.667 70.936C181.305 70.232 181.123 69.4373 181.123 68.552ZM188.339 68.584C188.339 67.976 188.211 67.448 187.955 67C187.71 66.552 187.385 66.2107 186.979 65.976C186.574 65.7413 186.137 65.624 185.667 65.624C185.198 65.624 184.761 65.7413 184.355 65.976C183.95 66.2 183.619 66.536 183.363 66.984C183.118 67.4213 182.995 67.944 182.995 68.552C182.995 69.16 183.118 69.6933 183.363 70.152C183.619 70.6107 183.95 70.9627 184.355 71.208C184.771 71.4427 185.209 71.56 185.667 71.56C186.137 71.56 186.574 71.4427 186.979 71.208C187.385 70.9733 187.71 70.632 187.955 70.184C188.211 69.7253 188.339 69.192 188.339 68.584ZM200.559 64.184V73H198.735V71.96C198.447 72.3227 198.068 72.6107 197.599 72.824C197.14 73.0267 196.65 73.128 196.127 73.128C195.434 73.128 194.81 72.984 194.255 72.696C193.711 72.408 193.279 71.9813 192.959 71.416C192.65 70.8507 192.495 70.168 192.495 69.368V64.184H194.303V69.096C194.303 69.8853 194.5 70.4933 194.895 70.92C195.29 71.336 195.828 71.544 196.511 71.544C197.194 71.544 197.732 71.336 198.127 70.92C198.532 70.4933 198.735 69.8853 198.735 69.096V64.184H200.559ZM204.79 61.16V73H202.966V61.16H204.79ZM215.264 68.376C215.264 68.7067 215.243 69.0053 215.2 69.272H208.464C208.518 69.976 208.779 70.5413 209.248 70.968C209.718 71.3947 210.294 71.608 210.976 71.608C211.958 71.608 212.651 71.1973 213.056 70.376H215.024C214.758 71.1867 214.272 71.8533 213.568 72.376C212.875 72.888 212.011 73.144 210.976 73.144C210.134 73.144 209.376 72.9573 208.704 72.584C208.043 72.2 207.52 71.6667 207.136 70.984C206.763 70.2907 206.576 69.4907 206.576 68.584C206.576 67.6773 206.758 66.8827 207.12 66.2C207.494 65.5067 208.011 64.9733 208.672 64.6C209.344 64.2267 210.112 64.04 210.976 64.04C211.808 64.04 212.55 64.2213 213.2 64.584C213.851 64.9467 214.358 65.4587 214.72 66.12C215.083 66.7707 215.264 67.5227 215.264 68.376ZM213.36 67.8C213.35 67.128 213.11 66.5893 212.64 66.184C212.171 65.7787 211.59 65.576 210.896 65.576C210.267 65.576 209.728 65.7787 209.28 66.184C208.832 66.5787 208.566 67.1173 208.48 67.8H213.36ZM223.344 65.672V70.552C223.344 70.8827 223.418 71.1227 223.568 71.272C223.728 71.4107 223.994 71.48 224.368 71.48H225.488V73H224.048C223.226 73 222.597 72.808 222.16 72.424C221.722 72.04 221.504 71.416 221.504 70.552V65.672H220.464V64.184H221.504V61.992H223.344V64.184H225.488V65.672H223.344ZM231.729 64.04C232.401 64.04 232.998 64.184 233.521 64.472C234.054 64.76 234.47 65.1867 234.769 65.752C235.078 66.3173 235.233 67 235.233 67.8V73H233.425V68.072C233.425 67.2827 233.227 66.68 232.833 66.264C232.438 65.8373 231.899 65.624 231.217 65.624C230.534 65.624 229.99 65.8373 229.585 66.264C229.19 66.68 228.993 67.2827 228.993 68.072V73H227.169V61.16H228.993V65.208C229.302 64.8347 229.691 64.5467 230.161 64.344C230.641 64.1413 231.163 64.04 231.729 64.04ZM245.639 68.376C245.639 68.7067 245.618 69.0053 245.575 69.272H238.839C238.893 69.976 239.154 70.5413 239.623 70.968C240.093 71.3947 240.669 71.608 241.351 71.608C242.333 71.608 243.026 71.1973 243.431 70.376H245.399C245.133 71.1867 244.647 71.8533 243.943 72.376C243.25 72.888 242.386 73.144 241.351 73.144C240.509 73.144 239.751 72.9573 239.079 72.584C238.418 72.2 237.895 71.6667 237.511 70.984C237.138 70.2907 236.951 69.4907 236.951 68.584C236.951 67.6773 237.133 66.8827 237.495 66.2C237.869 65.5067 238.386 64.9733 239.047 64.6C239.719 64.2267 240.487 64.04 241.351 64.04C242.183 64.04 242.925 64.2213 243.575 64.584C244.226 64.9467 244.733 65.4587 245.095 66.12C245.458 66.7707 245.639 67.5227 245.639 68.376ZM243.735 67.8C243.725 67.128 243.485 66.5893 243.015 66.184C242.546 65.7787 241.965 65.576 241.271 65.576C240.642 65.576 240.103 65.7787 239.655 66.184C239.207 66.5787 238.941 67.1173 238.855 67.8H243.735ZM250.983 68.584C250.983 67.6773 251.164 66.8827 251.527 66.2C251.9 65.5067 252.412 64.9733 253.063 64.6C253.713 64.2267 254.46 64.04 255.303 64.04C256.369 64.04 257.249 64.296 257.943 64.808C258.647 65.3093 259.121 66.0293 259.367 66.968H257.399C257.239 66.5307 256.983 66.1893 256.631 65.944C256.279 65.6987 255.836 65.576 255.303 65.576C254.556 65.576 253.959 65.8427 253.511 66.376C253.073 66.8987 252.855 67.6347 252.855 68.584C252.855 69.5333 253.073 70.2747 253.511 70.808C253.959 71.3413 254.556 71.608 255.303 71.608C256.359 71.608 257.057 71.144 257.399 70.216H259.367C259.111 71.112 258.631 71.8267 257.927 72.36C257.223 72.8827 256.348 73.144 255.303 73.144C254.46 73.144 253.713 72.9573 253.063 72.584C252.412 72.2 251.9 71.6667 251.527 70.984C251.164 70.2907 250.983 69.4907 250.983 68.584ZM260.576 68.552C260.576 67.6667 260.758 66.8827 261.12 66.2C261.494 65.5173 261.995 64.9893 262.624 64.616C263.264 64.232 263.968 64.04 264.736 64.04C265.43 64.04 266.032 64.1787 266.544 64.456C267.067 64.7227 267.483 65.0587 267.792 65.464V64.184H269.632V73H267.792V71.688C267.483 72.104 267.062 72.4507 266.528 72.728C265.995 73.0053 265.387 73.144 264.704 73.144C263.947 73.144 263.254 72.952 262.624 72.568C261.995 72.1733 261.494 71.6293 261.12 70.936C260.758 70.232 260.576 69.4373 260.576 68.552ZM267.792 68.584C267.792 67.976 267.664 67.448 267.408 67C267.163 66.552 266.838 66.2107 266.432 65.976C266.027 65.7413 265.59 65.624 265.12 65.624C264.651 65.624 264.214 65.7413 263.808 65.976C263.403 66.2 263.072 66.536 262.816 66.984C262.571 67.4213 262.448 67.944 262.448 68.552C262.448 69.16 262.571 69.6933 262.816 70.152C263.072 70.6107 263.403 70.9627 263.808 71.208C264.224 71.4427 264.662 71.56 265.12 71.56C265.59 71.56 266.027 71.4427 266.432 71.208C266.838 70.9733 267.163 70.632 267.408 70.184C267.664 69.7253 267.792 69.192 267.792 68.584ZM273.852 61.16V73H272.028V61.16H273.852ZM278.071 61.16V73H276.247V61.16H278.071ZM283.458 61.72C284.546 61.72 285.415 62.0187 286.066 62.616C286.727 63.2133 287.058 64.0293 287.058 65.064C287.058 66.1413 286.716 66.952 286.034 67.496C285.351 68.04 284.444 68.312 283.314 68.312L283.25 69.576H281.666L281.586 67.064H282.114C283.148 67.064 283.938 66.9253 284.482 66.648C285.036 66.3707 285.314 65.8427 285.314 65.064C285.314 64.4987 285.148 64.056 284.818 63.736C284.498 63.416 284.05 63.256 283.474 63.256C282.898 63.256 282.444 63.4107 282.114 63.72C281.783 64.0293 281.618 64.4613 281.618 65.016H279.906C279.906 64.376 280.05 63.8053 280.338 63.304C280.626 62.8027 281.036 62.4133 281.57 62.136C282.114 61.8587 282.743 61.72 283.458 61.72ZM282.434 73.112C282.103 73.112 281.826 73 281.602 72.776C281.378 72.552 281.266 72.2747 281.266 71.944C281.266 71.6133 281.378 71.336 281.602 71.112C281.826 70.888 282.103 70.776 282.434 70.776C282.754 70.776 283.026 70.888 283.25 71.112C283.474 71.336 283.586 71.6133 283.586 71.944C283.586 72.2747 283.474 72.552 283.25 72.776C283.026 73 282.754 73.112 282.434 73.112Z" fill="#231741"/>
<defs>
<filter id="filter0_d_0_616" x="0" y="0" width="430" height="242" filterUnits="userSpaceOnUse" color-interpolation-filters="sRGB">
<feFlood flood-opacity="0" result="BackgroundImageFix"/>
<feColorMatrix in="SourceAlpha" type="matrix" values="0 0 0 0 0 0 0 0 0 0 0 0 0 0 0 0 0 0 127 0" result="hardAlpha"/>
<feMorphology radius="1" operator="dilate" in="SourceAlpha" result="effect1_dropShadow_0_616"/>
<feOffset/>
<feGaussianBlur stdDeviation="1"/>
<feColorMatrix type="matrix" values="0 0 0 0 0 0 0 0 0 0 0 0 0 0 0 0 0 0 0.14 0"/>
<feBlend mode="normal" in2="BackgroundImageFix" result="effect1_dropShadow_0_616"/>
<feBlend mode="normal" in="SourceGraphic" in2="effect1_dropShadow_0_616" result="shape"/>
</filter>
</defs>
</svg>
