<svg width="430" height="242" viewBox="0 0 430 242" fill="none" xmlns="http://www.w3.org/2000/svg">
<g filter="url(#filter0_d_0_595)">
<rect x="3" y="3" width="424" height="236" rx="8" fill="#E8F4FF"/>
</g>
<path d="M77.5675 56.098C76.9142 56.098 76.3262 55.986 75.8035 55.762C75.2809 55.5287 74.8702 55.202 74.5715 54.782C74.2729 54.362 74.1235 53.872 74.1235 53.312H75.8315C75.8689 53.732 76.0322 54.0773 76.3215 54.348C76.6202 54.6187 77.0355 54.754 77.5675 54.754C78.1182 54.754 78.5475 54.6233 78.8555 54.362C79.1635 54.0913 79.3175 53.746 79.3175 53.326C79.3175 52.9993 79.2195 52.7333 79.0235 52.528C78.8369 52.3227 78.5989 52.164 78.3095 52.052C78.0295 51.94 77.6375 51.8187 77.1335 51.688C76.4989 51.52 75.9809 51.352 75.5795 51.184C75.1875 51.0067 74.8515 50.736 74.5715 50.372C74.2915 50.008 74.1515 49.5227 74.1515 48.916C74.1515 48.356 74.2915 47.866 74.5715 47.446C74.8515 47.026 75.2435 46.704 75.7475 46.48C76.2515 46.256 76.8349 46.144 77.4975 46.144C78.4402 46.144 79.2102 46.382 79.8075 46.858C80.4142 47.3247 80.7502 47.9687 80.8155 48.79H79.0515C79.0235 48.4353 78.8555 48.132 78.5475 47.88C78.2395 47.628 77.8335 47.502 77.3295 47.502C76.8722 47.502 76.4989 47.6187 76.2095 47.852C75.9202 48.0853 75.7755 48.4213 75.7755 48.86C75.7755 49.1587 75.8642 49.406 76.0415 49.602C76.2282 49.7887 76.4615 49.938 76.7415 50.05C77.0215 50.162 77.4042 50.2833 77.8895 50.414C78.5335 50.5913 79.0562 50.7687 79.4575 50.946C79.8682 51.1233 80.2135 51.3987 80.4935 51.772C80.7829 52.136 80.9275 52.626 80.9275 53.242C80.9275 53.7367 80.7922 54.2033 80.5215 54.642C80.2602 55.0807 79.8729 55.4353 79.3595 55.706C78.8555 55.9673 78.2582 56.098 77.5675 56.098ZM89.7547 48.286L85.0227 59.626H83.3707L84.9387 55.874L81.9007 48.286H83.6787L85.8487 54.166L88.1027 48.286H89.7547ZM94.8512 48.16C95.4578 48.16 95.9992 48.286 96.4752 48.538C96.9605 48.79 97.3385 49.1633 97.6092 49.658C97.8798 50.1527 98.0152 50.75 98.0152 51.45V56H96.4332V51.688C96.4332 50.9973 96.2605 50.47 95.9152 50.106C95.5698 49.7327 95.0985 49.546 94.5012 49.546C93.9038 49.546 93.4278 49.7327 93.0732 50.106C92.7278 50.47 92.5552 50.9973 92.5552 51.688V56H90.9592V48.286H92.5552V49.168C92.8165 48.8507 93.1478 48.6033 93.5492 48.426C93.9598 48.2487 94.3938 48.16 94.8512 48.16ZM99.519 52.136C99.519 51.3427 99.6776 50.6473 99.995 50.05C100.322 49.4433 100.77 48.9767 101.339 48.65C101.908 48.3233 102.562 48.16 103.299 48.16C104.232 48.16 105.002 48.384 105.609 48.832C106.225 49.2707 106.64 49.9007 106.855 50.722H105.133C104.993 50.3393 104.769 50.0407 104.461 49.826C104.153 49.6113 103.766 49.504 103.299 49.504C102.646 49.504 102.123 49.7373 101.731 50.204C101.348 50.6613 101.157 51.3053 101.157 52.136C101.157 52.9667 101.348 53.6153 101.731 54.082C102.123 54.5487 102.646 54.782 103.299 54.782C104.223 54.782 104.834 54.376 105.133 53.564H106.855C106.631 54.348 106.211 54.9733 105.595 55.44C104.979 55.8973 104.214 56.126 103.299 56.126C102.562 56.126 101.908 55.9627 101.339 55.636C100.77 55.3 100.322 54.8333 99.995 54.236C99.6776 53.6293 99.519 52.9293 99.519 52.136ZM119.026 48.286L114.294 59.626H112.642L114.21 55.874L111.172 48.286H112.95L115.12 54.166L117.374 48.286H119.026ZM123.577 56.126C122.849 56.126 122.191 55.9627 121.603 55.636C121.015 55.3 120.553 54.8333 120.217 54.236C119.881 53.6293 119.713 52.9293 119.713 52.136C119.713 51.352 119.885 50.6567 120.231 50.05C120.576 49.4433 121.047 48.9767 121.645 48.65C122.242 48.3233 122.909 48.16 123.647 48.16C124.384 48.16 125.051 48.3233 125.649 48.65C126.246 48.9767 126.717 49.4433 127.063 50.05C127.408 50.6567 127.581 51.352 127.581 52.136C127.581 52.92 127.403 53.6153 127.049 54.222C126.694 54.8287 126.209 55.3 125.593 55.636C124.986 55.9627 124.314 56.126 123.577 56.126ZM123.577 54.74C123.987 54.74 124.37 54.642 124.725 54.446C125.089 54.25 125.383 53.956 125.607 53.564C125.831 53.172 125.943 52.696 125.943 52.136C125.943 51.576 125.835 51.1047 125.621 50.722C125.406 50.33 125.121 50.036 124.767 49.84C124.412 49.644 124.029 49.546 123.619 49.546C123.208 49.546 122.825 49.644 122.471 49.84C122.125 50.036 121.85 50.33 121.645 50.722C121.439 51.1047 121.337 51.576 121.337 52.136C121.337 52.9667 121.547 53.6107 121.967 54.068C122.396 54.516 122.933 54.74 123.577 54.74ZM136.144 48.286V56H134.548V55.09C134.296 55.4073 133.965 55.6593 133.554 55.846C133.153 56.0233 132.724 56.112 132.266 56.112C131.66 56.112 131.114 55.986 130.628 55.734C130.152 55.482 129.774 55.1087 129.494 54.614C129.224 54.1193 129.088 53.522 129.088 52.822V48.286H130.67V52.584C130.67 53.2747 130.843 53.8067 131.188 54.18C131.534 54.544 132.005 54.726 132.602 54.726C133.2 54.726 133.671 54.544 134.016 54.18C134.371 53.8067 134.548 53.2747 134.548 52.584V48.286H136.144ZM139.846 49.406C140.08 49.014 140.388 48.7107 140.77 48.496C141.162 48.272 141.624 48.16 142.156 48.16V49.812H141.75C141.125 49.812 140.649 49.9707 140.322 50.288C140.005 50.6053 139.846 51.156 139.846 51.94V56H138.25V48.286H139.846V49.406ZM154.302 49.07C154.05 48.5847 153.7 48.2207 153.252 47.978C152.804 47.726 152.286 47.6 151.698 47.6C151.054 47.6 150.48 47.7447 149.976 48.034C149.472 48.3233 149.075 48.734 148.786 49.266C148.506 49.798 148.366 50.414 148.366 51.114C148.366 51.814 148.506 52.4347 148.786 52.976C149.075 53.508 149.472 53.9187 149.976 54.208C150.48 54.4973 151.054 54.642 151.698 54.642C152.566 54.642 153.271 54.3993 153.812 53.914C154.353 53.4287 154.685 52.7707 154.806 51.94H151.152V50.666H156.514V51.912C156.411 52.668 156.141 53.3633 155.702 53.998C155.273 54.6327 154.708 55.1413 154.008 55.524C153.317 55.8973 152.547 56.084 151.698 56.084C150.783 56.084 149.948 55.874 149.192 55.454C148.436 55.0247 147.834 54.432 147.386 53.676C146.947 52.92 146.728 52.066 146.728 51.114C146.728 50.162 146.947 49.308 147.386 48.552C147.834 47.796 148.436 47.208 149.192 46.788C149.957 46.3587 150.793 46.144 151.698 46.144C152.734 46.144 153.653 46.4007 154.456 46.914C155.268 47.418 155.856 48.1367 156.22 49.07H154.302ZM161.434 56.126C160.706 56.126 160.048 55.9627 159.46 55.636C158.872 55.3 158.41 54.8333 158.074 54.236C157.738 53.6293 157.57 52.9293 157.57 52.136C157.57 51.352 157.743 50.6567 158.088 50.05C158.433 49.4433 158.905 48.9767 159.502 48.65C160.099 48.3233 160.767 48.16 161.504 48.16C162.241 48.16 162.909 48.3233 163.506 48.65C164.103 48.9767 164.575 49.4433 164.92 50.05C165.265 50.6567 165.438 51.352 165.438 52.136C165.438 52.92 165.261 53.6153 164.906 54.222C164.551 54.8287 164.066 55.3 163.45 55.636C162.843 55.9627 162.171 56.126 161.434 56.126ZM161.434 54.74C161.845 54.74 162.227 54.642 162.582 54.446C162.946 54.25 163.24 53.956 163.464 53.564C163.688 53.172 163.8 52.696 163.8 52.136C163.8 51.576 163.693 51.1047 163.478 50.722C163.263 50.33 162.979 50.036 162.624 49.84C162.269 49.644 161.887 49.546 161.476 49.546C161.065 49.546 160.683 49.644 160.328 49.84C159.983 50.036 159.707 50.33 159.502 50.722C159.297 51.1047 159.194 51.576 159.194 52.136C159.194 52.9667 159.404 53.6107 159.824 54.068C160.253 54.516 160.79 54.74 161.434 54.74ZM170.362 56.126C169.634 56.126 168.976 55.9627 168.388 55.636C167.8 55.3 167.338 54.8333 167.002 54.236C166.666 53.6293 166.498 52.9293 166.498 52.136C166.498 51.352 166.67 50.6567 167.016 50.05C167.361 49.4433 167.832 48.9767 168.43 48.65C169.027 48.3233 169.694 48.16 170.432 48.16C171.169 48.16 171.836 48.3233 172.434 48.65C173.031 48.9767 173.502 49.4433 173.848 50.05C174.193 50.6567 174.366 51.352 174.366 52.136C174.366 52.92 174.188 53.6153 173.834 54.222C173.479 54.8287 172.994 55.3 172.378 55.636C171.771 55.9627 171.099 56.126 170.362 56.126ZM170.362 54.74C170.772 54.74 171.155 54.642 171.51 54.446C171.874 54.25 172.168 53.956 172.392 53.564C172.616 53.172 172.728 52.696 172.728 52.136C172.728 51.576 172.62 51.1047 172.406 50.722C172.191 50.33 171.906 50.036 171.552 49.84C171.197 49.644 170.814 49.546 170.404 49.546C169.993 49.546 169.61 49.644 169.256 49.84C168.91 50.036 168.635 50.33 168.43 50.722C168.224 51.1047 168.122 51.576 168.122 52.136C168.122 52.9667 168.332 53.6107 168.752 54.068C169.181 54.516 169.718 54.74 170.362 54.74ZM179.052 48.16C179.649 48.16 180.176 48.2813 180.634 48.524C181.1 48.7573 181.464 49.0513 181.726 49.406V48.286H183.336V56.126C183.336 56.8353 183.186 57.4653 182.888 58.016C182.589 58.576 182.155 59.0147 181.586 59.332C181.026 59.6493 180.354 59.808 179.57 59.808C178.524 59.808 177.656 59.5607 176.966 59.066C176.275 58.5807 175.883 57.918 175.79 57.078H177.372C177.493 57.4793 177.75 57.8013 178.142 58.044C178.543 58.296 179.019 58.422 179.57 58.422C180.214 58.422 180.732 58.226 181.124 57.834C181.525 57.442 181.726 56.8727 181.726 56.126V54.838C181.455 55.202 181.086 55.51 180.62 55.762C180.162 56.0047 179.64 56.126 179.052 56.126C178.38 56.126 177.764 55.958 177.204 55.622C176.653 55.2767 176.214 54.8007 175.888 54.194C175.57 53.578 175.412 52.8827 175.412 52.108C175.412 51.3333 175.57 50.6473 175.888 50.05C176.214 49.4527 176.653 48.9907 177.204 48.664C177.764 48.328 178.38 48.16 179.052 48.16ZM181.726 52.136C181.726 51.604 181.614 51.142 181.39 50.75C181.175 50.358 180.89 50.0593 180.536 49.854C180.181 49.6487 179.798 49.546 179.388 49.546C178.977 49.546 178.594 49.6487 178.24 49.854C177.885 50.05 177.596 50.344 177.372 50.736C177.157 51.1187 177.05 51.576 177.05 52.108C177.05 52.64 177.157 53.1067 177.372 53.508C177.596 53.9093 177.885 54.2173 178.24 54.432C178.604 54.6373 178.986 54.74 179.388 54.74C179.798 54.74 180.181 54.6373 180.536 54.432C180.89 54.2267 181.175 53.928 181.39 53.536C181.614 53.1347 181.726 52.668 181.726 52.136ZM192.502 51.954C192.502 52.2433 192.483 52.5047 192.446 52.738H186.552C186.599 53.354 186.827 53.8487 187.238 54.222C187.649 54.5953 188.153 54.782 188.75 54.782C189.609 54.782 190.215 54.4227 190.57 53.704H192.292C192.059 54.4133 191.634 54.9967 191.018 55.454C190.411 55.902 189.655 56.126 188.75 56.126C188.013 56.126 187.35 55.9627 186.762 55.636C186.183 55.3 185.726 54.8333 185.39 54.236C185.063 53.6293 184.9 52.9293 184.9 52.136C184.9 51.3427 185.059 50.6473 185.376 50.05C185.703 49.4433 186.155 48.9767 186.734 48.65C187.322 48.3233 187.994 48.16 188.75 48.16C189.478 48.16 190.127 48.3187 190.696 48.636C191.265 48.9533 191.709 49.4013 192.026 49.98C192.343 50.5493 192.502 51.2073 192.502 51.954ZM190.836 51.45C190.827 50.862 190.617 50.3907 190.206 50.036C189.795 49.6813 189.287 49.504 188.68 49.504C188.129 49.504 187.658 49.6813 187.266 50.036C186.874 50.3813 186.641 50.8527 186.566 51.45H190.836ZM197.177 51.114C197.177 50.162 197.397 49.308 197.835 48.552C198.283 47.796 198.885 47.208 199.641 46.788C200.407 46.3587 201.242 46.144 202.147 46.144C203.183 46.144 204.103 46.4007 204.905 46.914C205.717 47.418 206.305 48.1367 206.669 49.07H204.751C204.499 48.5567 204.149 48.174 203.701 47.922C203.253 47.67 202.735 47.544 202.147 47.544C201.503 47.544 200.929 47.6887 200.425 47.978C199.921 48.2673 199.525 48.6827 199.235 49.224C198.955 49.7653 198.815 50.3953 198.815 51.114C198.815 51.8327 198.955 52.4627 199.235 53.004C199.525 53.5453 199.921 53.9653 200.425 54.264C200.929 54.5533 201.503 54.698 202.147 54.698C202.735 54.698 203.253 54.572 203.701 54.32C204.149 54.068 204.499 53.6853 204.751 53.172H206.669C206.305 54.1053 205.717 54.824 204.905 55.328C204.103 55.832 203.183 56.084 202.147 56.084C201.233 56.084 200.397 55.874 199.641 55.454C198.885 55.0247 198.283 54.432 197.835 53.676C197.397 52.92 197.177 52.066 197.177 51.114ZM208.005 52.108C208.005 51.3333 208.164 50.6473 208.481 50.05C208.808 49.4527 209.247 48.9907 209.797 48.664C210.357 48.328 210.973 48.16 211.645 48.16C212.252 48.16 212.779 48.2813 213.227 48.524C213.685 48.7573 214.049 49.0513 214.319 49.406V48.286H215.929V56H214.319V54.852C214.049 55.216 213.68 55.5193 213.213 55.762C212.747 56.0047 212.215 56.126 211.617 56.126C210.955 56.126 210.348 55.958 209.797 55.622C209.247 55.2767 208.808 54.8007 208.481 54.194C208.164 53.578 208.005 52.8827 208.005 52.108ZM214.319 52.136C214.319 51.604 214.207 51.142 213.983 50.75C213.769 50.358 213.484 50.0593 213.129 49.854C212.775 49.6487 212.392 49.546 211.981 49.546C211.571 49.546 211.188 49.6487 210.833 49.854C210.479 50.05 210.189 50.344 209.965 50.736C209.751 51.1187 209.643 51.576 209.643 52.108C209.643 52.64 209.751 53.1067 209.965 53.508C210.189 53.9093 210.479 54.2173 210.833 54.432C211.197 54.6373 211.58 54.74 211.981 54.74C212.392 54.74 212.775 54.6373 213.129 54.432C213.484 54.2267 213.769 53.928 213.983 53.536C214.207 53.1347 214.319 52.668 214.319 52.136ZM219.622 45.64V56H218.026V45.64H219.622ZM228.787 51.954C228.787 52.2433 228.768 52.5047 228.731 52.738H222.837C222.884 53.354 223.112 53.8487 223.523 54.222C223.934 54.5953 224.438 54.782 225.035 54.782C225.894 54.782 226.5 54.4227 226.855 53.704H228.577C228.344 54.4133 227.919 54.9967 227.303 55.454C226.696 55.902 225.94 56.126 225.035 56.126C224.298 56.126 223.635 55.9627 223.047 55.636C222.468 55.3 222.011 54.8333 221.675 54.236C221.348 53.6293 221.185 52.9293 221.185 52.136C221.185 51.3427 221.344 50.6473 221.661 50.05C221.988 49.4433 222.44 48.9767 223.019 48.65C223.607 48.3233 224.279 48.16 225.035 48.16C225.763 48.16 226.412 48.3187 226.981 48.636C227.55 48.9533 227.994 49.4013 228.311 49.98C228.628 50.5493 228.787 51.2073 228.787 51.954ZM227.121 51.45C227.112 50.862 226.902 50.3907 226.491 50.036C226.08 49.6813 225.572 49.504 224.965 49.504C224.414 49.504 223.943 49.6813 223.551 50.036C223.159 50.3813 222.926 50.8527 222.851 51.45H227.121ZM234.25 48.16C234.856 48.16 235.398 48.286 235.874 48.538C236.359 48.79 236.737 49.1633 237.008 49.658C237.278 50.1527 237.414 50.75 237.414 51.45V56H235.832V51.688C235.832 50.9973 235.659 50.47 235.314 50.106C234.968 49.7327 234.497 49.546 233.9 49.546C233.302 49.546 232.826 49.7327 232.472 50.106C232.126 50.47 231.954 50.9973 231.954 51.688V56H230.358V48.286H231.954V49.168C232.215 48.8507 232.546 48.6033 232.948 48.426C233.358 48.2487 233.792 48.16 234.25 48.16ZM238.917 52.108C238.917 51.3333 239.076 50.6473 239.393 50.05C239.72 49.4527 240.159 48.9907 240.709 48.664C241.269 48.328 241.89 48.16 242.571 48.16C243.075 48.16 243.57 48.272 244.055 48.496C244.55 48.7107 244.942 49 245.231 49.364V45.64H246.841V56H245.231V54.838C244.97 55.2113 244.606 55.5193 244.139 55.762C243.682 56.0047 243.155 56.126 242.557 56.126C241.885 56.126 241.269 55.958 240.709 55.622C240.159 55.2767 239.72 54.8007 239.393 54.194C239.076 53.578 238.917 52.8827 238.917 52.108ZM245.231 52.136C245.231 51.604 245.119 51.142 244.895 50.75C244.681 50.358 244.396 50.0593 244.041 49.854C243.687 49.6487 243.304 49.546 242.893 49.546C242.483 49.546 242.1 49.6487 241.745 49.854C241.391 50.05 241.101 50.344 240.877 50.736C240.663 51.1187 240.555 51.576 240.555 52.108C240.555 52.64 240.663 53.1067 240.877 53.508C241.101 53.9093 241.391 54.2173 241.745 54.432C242.109 54.6373 242.492 54.74 242.893 54.74C243.304 54.74 243.687 54.6373 244.041 54.432C244.396 54.2267 244.681 53.928 244.895 53.536C245.119 53.1347 245.231 52.668 245.231 52.136ZM248.406 52.108C248.406 51.3333 248.564 50.6473 248.882 50.05C249.208 49.4527 249.647 48.9907 250.198 48.664C250.758 48.328 251.374 48.16 252.046 48.16C252.652 48.16 253.18 48.2813 253.628 48.524C254.085 48.7573 254.449 49.0513 254.72 49.406V48.286H256.33V56H254.72V54.852C254.449 55.216 254.08 55.5193 253.614 55.762C253.147 56.0047 252.615 56.126 252.018 56.126C251.355 56.126 250.748 55.958 250.198 55.622C249.647 55.2767 249.208 54.8007 248.882 54.194C248.564 53.578 248.406 52.8827 248.406 52.108ZM254.72 52.136C254.72 51.604 254.608 51.142 254.384 50.75C254.169 50.358 253.884 50.0593 253.53 49.854C253.175 49.6487 252.792 49.546 252.382 49.546C251.971 49.546 251.588 49.6487 251.234 49.854C250.879 50.05 250.59 50.344 250.366 50.736C250.151 51.1187 250.044 51.576 250.044 52.108C250.044 52.64 250.151 53.1067 250.366 53.508C250.59 53.9093 250.879 54.2173 251.234 54.432C251.598 54.6373 251.98 54.74 252.382 54.74C252.792 54.74 253.175 54.6373 253.53 54.432C253.884 54.2267 254.169 53.928 254.384 53.536C254.608 53.1347 254.72 52.668 254.72 52.136ZM260.022 49.406C260.255 49.014 260.563 48.7107 260.946 48.496C261.338 48.272 261.8 48.16 262.332 48.16V49.812H261.926C261.301 49.812 260.825 49.9707 260.498 50.288C260.181 50.6053 260.022 51.156 260.022 51.94V56H258.426V48.286H260.022V49.406ZM266.904 52.108C266.904 51.3333 267.062 50.6473 267.38 50.05C267.706 49.4527 268.145 48.9907 268.696 48.664C269.256 48.328 269.872 48.16 270.544 48.16C271.15 48.16 271.678 48.2813 272.126 48.524C272.583 48.7573 272.947 49.0513 273.218 49.406V48.286H274.828V56H273.218V54.852C272.947 55.216 272.578 55.5193 272.112 55.762C271.645 56.0047 271.113 56.126 270.516 56.126C269.853 56.126 269.246 55.958 268.696 55.622C268.145 55.2767 267.706 54.8007 267.38 54.194C267.062 53.578 266.904 52.8827 266.904 52.108ZM273.218 52.136C273.218 51.604 273.106 51.142 272.882 50.75C272.667 50.358 272.382 50.0593 272.028 49.854C271.673 49.6487 271.29 49.546 270.88 49.546C270.469 49.546 270.086 49.6487 269.732 49.854C269.377 50.05 269.088 50.344 268.864 50.736C268.649 51.1187 268.542 51.576 268.542 52.108C268.542 52.64 268.649 53.1067 268.864 53.508C269.088 53.9093 269.377 54.2173 269.732 54.432C270.096 54.6373 270.478 54.74 270.88 54.74C271.29 54.74 271.673 54.6373 272.028 54.432C272.382 54.2267 272.667 53.928 272.882 53.536C273.106 53.1347 273.218 52.668 273.218 52.136ZM276.392 52.136C276.392 51.3427 276.551 50.6473 276.868 50.05C277.195 49.4433 277.643 48.9767 278.212 48.65C278.781 48.3233 279.435 48.16 280.172 48.16C281.105 48.16 281.875 48.384 282.482 48.832C283.098 49.2707 283.513 49.9007 283.728 50.722H282.006C281.866 50.3393 281.642 50.0407 281.334 49.826C281.026 49.6113 280.639 49.504 280.172 49.504C279.519 49.504 278.996 49.7373 278.604 50.204C278.221 50.6613 278.03 51.3053 278.03 52.136C278.03 52.9667 278.221 53.6153 278.604 54.082C278.996 54.5487 279.519 54.782 280.172 54.782C281.096 54.782 281.707 54.376 282.006 53.564H283.728C283.504 54.348 283.084 54.9733 282.468 55.44C281.852 55.8973 281.087 56.126 280.172 56.126C279.435 56.126 278.781 55.9627 278.212 55.636C277.643 55.3 277.195 54.8333 276.868 54.236C276.551 53.6293 276.392 52.9293 276.392 52.136ZM284.787 52.136C284.787 51.3427 284.945 50.6473 285.263 50.05C285.589 49.4433 286.037 48.9767 286.607 48.65C287.176 48.3233 287.829 48.16 288.567 48.16C289.5 48.16 290.27 48.384 290.877 48.832C291.493 49.2707 291.908 49.9007 292.123 50.722H290.401C290.261 50.3393 290.037 50.0407 289.729 49.826C289.421 49.6113 289.033 49.504 288.567 49.504C287.913 49.504 287.391 49.7373 286.999 50.204C286.616 50.6613 286.425 51.3053 286.425 52.136C286.425 52.9667 286.616 53.6153 286.999 54.082C287.391 54.5487 287.913 54.782 288.567 54.782C289.491 54.782 290.102 54.376 290.401 53.564H292.123C291.899 54.348 291.479 54.9733 290.863 55.44C290.247 55.8973 289.481 56.126 288.567 56.126C287.829 56.126 287.176 55.9627 286.607 55.636C286.037 55.3 285.589 54.8333 285.263 54.236C284.945 53.6293 284.787 52.9293 284.787 52.136ZM297.059 56.126C296.331 56.126 295.673 55.9627 295.085 55.636C294.497 55.3 294.035 54.8333 293.699 54.236C293.363 53.6293 293.195 52.9293 293.195 52.136C293.195 51.352 293.368 50.6567 293.713 50.05C294.058 49.4433 294.53 48.9767 295.127 48.65C295.724 48.3233 296.392 48.16 297.129 48.16C297.866 48.16 298.534 48.3233 299.131 48.65C299.728 48.9767 300.2 49.4433 300.545 50.05C300.89 50.6567 301.063 51.352 301.063 52.136C301.063 52.92 300.886 53.6153 300.531 54.222C300.176 54.8287 299.691 55.3 299.075 55.636C298.468 55.9627 297.796 56.126 297.059 56.126ZM297.059 54.74C297.47 54.74 297.852 54.642 298.207 54.446C298.571 54.25 298.865 53.956 299.089 53.564C299.313 53.172 299.425 52.696 299.425 52.136C299.425 51.576 299.318 51.1047 299.103 50.722C298.888 50.33 298.604 50.036 298.249 49.84C297.894 49.644 297.512 49.546 297.101 49.546C296.69 49.546 296.308 49.644 295.953 49.84C295.608 50.036 295.332 50.33 295.127 50.722C294.922 51.1047 294.819 51.576 294.819 52.136C294.819 52.9667 295.029 53.6107 295.449 54.068C295.878 54.516 296.415 54.74 297.059 54.74ZM309.627 48.286V56H308.031V55.09C307.779 55.4073 307.447 55.6593 307.037 55.846C306.635 56.0233 306.206 56.112 305.749 56.112C305.142 56.112 304.596 55.986 304.111 55.734C303.635 55.482 303.257 55.1087 302.977 54.614C302.706 54.1193 302.571 53.522 302.571 52.822V48.286H304.153V52.584C304.153 53.2747 304.325 53.8067 304.671 54.18C305.016 54.544 305.487 54.726 306.085 54.726C306.682 54.726 307.153 54.544 307.499 54.18C307.853 53.8067 308.031 53.2747 308.031 52.584V48.286H309.627ZM315.625 48.16C316.231 48.16 316.773 48.286 317.249 48.538C317.734 48.79 318.112 49.1633 318.383 49.658C318.653 50.1527 318.789 50.75 318.789 51.45V56H317.207V51.688C317.207 50.9973 317.034 50.47 316.689 50.106C316.343 49.7327 315.872 49.546 315.275 49.546C314.677 49.546 314.201 49.7327 313.847 50.106C313.501 50.47 313.329 50.9973 313.329 51.688V56H311.733V48.286H313.329V49.168C313.59 48.8507 313.921 48.6033 314.323 48.426C314.733 48.2487 315.167 48.16 315.625 48.16ZM322.686 49.588V53.858C322.686 54.1473 322.752 54.3573 322.882 54.488C323.022 54.6093 323.256 54.67 323.582 54.67H324.562V56H323.302C322.584 56 322.033 55.832 321.65 55.496C321.268 55.16 321.076 54.614 321.076 53.858V49.588H320.166V48.286H321.076V46.368H322.686V48.286H324.562V49.588H322.686ZM329.138 52.108C329.138 51.3333 329.297 50.6473 329.614 50.05C329.941 49.4527 330.379 48.9907 330.93 48.664C331.49 48.328 332.106 48.16 332.778 48.16C333.385 48.16 333.912 48.2813 334.36 48.524C334.817 48.7573 335.181 49.0513 335.452 49.406V48.286H337.062V56H335.452V54.852C335.181 55.216 334.813 55.5193 334.346 55.762C333.879 56.0047 333.347 56.126 332.75 56.126C332.087 56.126 331.481 55.958 330.93 55.622C330.379 55.2767 329.941 54.8007 329.614 54.194C329.297 53.578 329.138 52.8827 329.138 52.108ZM335.452 52.136C335.452 51.604 335.34 51.142 335.116 50.75C334.901 50.358 334.617 50.0593 334.262 49.854C333.907 49.6487 333.525 49.546 333.114 49.546C332.703 49.546 332.321 49.6487 331.966 49.854C331.611 50.05 331.322 50.344 331.098 50.736C330.883 51.1187 330.776 51.576 330.776 52.108C330.776 52.64 330.883 53.1067 331.098 53.508C331.322 53.9093 331.611 54.2173 331.966 54.432C332.33 54.6373 332.713 54.74 333.114 54.74C333.525 54.74 333.907 54.6373 334.262 54.432C334.617 54.2267 334.901 53.928 335.116 53.536C335.34 53.1347 335.452 52.668 335.452 52.136ZM343.05 48.16C343.657 48.16 344.198 48.286 344.674 48.538C345.16 48.79 345.538 49.1633 345.808 49.658C346.079 50.1527 346.214 50.75 346.214 51.45V56H344.632V51.688C344.632 50.9973 344.46 50.47 344.114 50.106C343.769 49.7327 343.298 49.546 342.7 49.546C342.103 49.546 341.627 49.7327 341.272 50.106C340.927 50.47 340.754 50.9973 340.754 51.688V56H339.158V48.286H340.754V49.168C341.016 48.8507 341.347 48.6033 341.748 48.426C342.159 48.2487 342.593 48.16 343.05 48.16ZM347.718 52.108C347.718 51.3333 347.877 50.6473 348.194 50.05C348.521 49.4527 348.96 48.9907 349.51 48.664C350.07 48.328 350.691 48.16 351.372 48.16C351.876 48.16 352.371 48.272 352.856 48.496C353.351 48.7107 353.743 49 354.032 49.364V45.64H355.642V56H354.032V54.838C353.771 55.2113 353.407 55.5193 352.94 55.762C352.483 56.0047 351.956 56.126 351.358 56.126C350.686 56.126 350.07 55.958 349.51 55.622C348.96 55.2767 348.521 54.8007 348.194 54.194C347.877 53.578 347.718 52.8827 347.718 52.108ZM354.032 52.136C354.032 51.604 353.92 51.142 353.696 50.75C353.482 50.358 353.197 50.0593 352.842 49.854C352.488 49.6487 352.105 49.546 351.694 49.546C351.284 49.546 350.901 49.6487 350.546 49.854C350.192 50.05 349.902 50.344 349.678 50.736C349.464 51.1187 349.356 51.576 349.356 52.108C349.356 52.64 349.464 53.1067 349.678 53.508C349.902 53.9093 350.192 54.2173 350.546 54.432C350.91 54.6373 351.293 54.74 351.694 54.74C352.105 54.74 352.488 54.6373 352.842 54.432C353.197 54.2267 353.482 53.928 353.696 53.536C353.92 53.1347 354.032 52.668 354.032 52.136ZM57.4833 68.286V76H55.8873V75.09C55.6353 75.4073 55.3039 75.6593 54.8933 75.846C54.4919 76.0233 54.0626 76.112 53.6053 76.112C52.9986 76.112 52.4526 75.986 51.9673 75.734C51.4913 75.482 51.1133 75.1087 50.8333 74.614C50.5626 74.1193 50.4273 73.522 50.4273 72.822V68.286H52.0093V72.584C52.0093 73.2747 52.1819 73.8067 52.5273 74.18C52.8726 74.544 53.3439 74.726 53.9413 74.726C54.5386 74.726 55.0099 74.544 55.3553 74.18C55.7099 73.8067 55.8873 73.2747 55.8873 72.584V68.286H57.4833ZM61.1851 69.42C61.4557 69.0653 61.8244 68.7667 62.2911 68.524C62.7577 68.2813 63.2851 68.16 63.8731 68.16C64.5451 68.16 65.1564 68.328 65.7071 68.664C66.2671 68.9907 66.7057 69.4527 67.0231 70.05C67.3404 70.6473 67.4991 71.3333 67.4991 72.108C67.4991 72.8827 67.3404 73.578 67.0231 74.194C66.7057 74.8007 66.2671 75.2767 65.7071 75.622C65.1564 75.958 64.5451 76.126 63.8731 76.126C63.2851 76.126 62.7624 76.0093 62.3051 75.776C61.8477 75.5333 61.4744 75.2347 61.1851 74.88V79.668H59.5891V68.286H61.1851V69.42ZM65.8751 72.108C65.8751 71.576 65.7631 71.1187 65.5391 70.736C65.3244 70.344 65.0351 70.05 64.6711 69.854C64.3164 69.6487 63.9337 69.546 63.5231 69.546C63.1217 69.546 62.7391 69.6487 62.3751 69.854C62.0204 70.0593 61.7311 70.358 61.5071 70.75C61.2924 71.142 61.1851 71.604 61.1851 72.136C61.1851 72.668 61.2924 73.1347 61.5071 73.536C61.7311 73.928 62.0204 74.2267 62.3751 74.432C62.7391 74.6373 63.1217 74.74 63.5231 74.74C63.9337 74.74 64.3164 74.6373 64.6711 74.432C65.0351 74.2173 65.3244 73.9093 65.5391 73.508C65.7631 73.1067 65.8751 72.64 65.8751 72.108ZM68.5453 72.108C68.5453 71.3333 68.704 70.6473 69.0213 70.05C69.348 69.4527 69.7867 68.9907 70.3373 68.664C70.8973 68.328 71.518 68.16 72.1993 68.16C72.7033 68.16 73.198 68.272 73.6833 68.496C74.178 68.7107 74.57 69 74.8593 69.364V65.64H76.4693V76H74.8593V74.838C74.598 75.2113 74.234 75.5193 73.7673 75.762C73.31 76.0047 72.7827 76.126 72.1853 76.126C71.5133 76.126 70.8973 75.958 70.3373 75.622C69.7867 75.2767 69.348 74.8007 69.0213 74.194C68.704 73.578 68.5453 72.8827 68.5453 72.108ZM74.8593 72.136C74.8593 71.604 74.7473 71.142 74.5233 70.75C74.3087 70.358 74.024 70.0593 73.6693 69.854C73.3147 69.6487 72.932 69.546 72.5213 69.546C72.1107 69.546 71.728 69.6487 71.3733 69.854C71.0187 70.05 70.7293 70.344 70.5053 70.736C70.2907 71.1187 70.1833 71.576 70.1833 72.108C70.1833 72.64 70.2907 73.1067 70.5053 73.508C70.7293 73.9093 71.0187 74.2173 71.3733 74.432C71.7373 74.6373 72.12 74.74 72.5213 74.74C72.932 74.74 73.3147 74.6373 73.6693 74.432C74.024 74.2267 74.3087 73.928 74.5233 73.536C74.7473 73.1347 74.8593 72.668 74.8593 72.136ZM78.0336 72.108C78.0336 71.3333 78.1923 70.6473 78.5096 70.05C78.8363 69.4527 79.275 68.9907 79.8256 68.664C80.3856 68.328 81.0016 68.16 81.6736 68.16C82.2803 68.16 82.8076 68.2813 83.2556 68.524C83.713 68.7573 84.077 69.0513 84.3476 69.406V68.286H85.9576V76H84.3476V74.852C84.077 75.216 83.7083 75.5193 83.2416 75.762C82.775 76.0047 82.243 76.126 81.6456 76.126C80.983 76.126 80.3763 75.958 79.8256 75.622C79.275 75.2767 78.8363 74.8007 78.5096 74.194C78.1923 73.578 78.0336 72.8827 78.0336 72.108ZM84.3476 72.136C84.3476 71.604 84.2356 71.142 84.0116 70.75C83.797 70.358 83.5123 70.0593 83.1576 69.854C82.803 69.6487 82.4203 69.546 82.0096 69.546C81.599 69.546 81.2163 69.6487 80.8616 69.854C80.507 70.05 80.2176 70.344 79.9936 70.736C79.779 71.1187 79.6716 71.576 79.6716 72.108C79.6716 72.64 79.779 73.1067 79.9936 73.508C80.2176 73.9093 80.507 74.2173 80.8616 74.432C81.2256 74.6373 81.6083 74.74 82.0096 74.74C82.4203 74.74 82.803 74.6373 83.1576 74.432C83.5123 74.2267 83.797 73.928 84.0116 73.536C84.2356 73.1347 84.3476 72.668 84.3476 72.136ZM89.9159 69.588V73.858C89.9159 74.1473 89.9812 74.3573 90.1119 74.488C90.2519 74.6093 90.4852 74.67 90.8119 74.67H91.7919V76H90.5319C89.8132 76 89.2626 75.832 88.8799 75.496C88.4972 75.16 88.3059 74.614 88.3059 73.858V69.588H87.3959V68.286H88.3059V66.368H89.9159V68.286H91.7919V69.588H89.9159ZM100.333 71.954C100.333 72.2433 100.314 72.5047 100.277 72.738H94.3829C94.4296 73.354 94.6582 73.8487 95.0689 74.222C95.4796 74.5953 95.9836 74.782 96.5809 74.782C97.4396 74.782 98.0462 74.4227 98.4009 73.704H100.123C99.8896 74.4133 99.4649 74.9967 98.8489 75.454C98.2422 75.902 97.4862 76.126 96.5809 76.126C95.8436 76.126 95.1809 75.9627 94.5929 75.636C94.0142 75.3 93.5569 74.8333 93.2209 74.236C92.8942 73.6293 92.7309 72.9293 92.7309 72.136C92.7309 71.3427 92.8896 70.6473 93.2069 70.05C93.5336 69.4433 93.9862 68.9767 94.5649 68.65C95.1529 68.3233 95.8249 68.16 96.5809 68.16C97.3089 68.16 97.9576 68.3187 98.5269 68.636C99.0962 68.9533 99.5396 69.4013 99.8569 69.98C100.174 70.5493 100.333 71.2073 100.333 71.954ZM98.6669 71.45C98.6576 70.862 98.4476 70.3907 98.0369 70.036C97.6262 69.6813 97.1176 69.504 96.5109 69.504C95.9602 69.504 95.4889 69.6813 95.0969 70.036C94.7049 70.3813 94.4716 70.8527 94.3969 71.45H98.6669ZM106.352 67.264C106.063 67.264 105.82 67.166 105.624 66.97C105.428 66.774 105.33 66.5313 105.33 66.242C105.33 65.9527 105.428 65.71 105.624 65.514C105.82 65.318 106.063 65.22 106.352 65.22C106.632 65.22 106.87 65.318 107.066 65.514C107.262 65.71 107.36 65.9527 107.36 66.242C107.36 66.5313 107.262 66.774 107.066 66.97C106.87 67.166 106.632 67.264 106.352 67.264ZM107.136 68.286V76H105.54V68.286H107.136ZM111.094 69.588V73.858C111.094 74.1473 111.159 74.3573 111.29 74.488C111.43 74.6093 111.663 74.67 111.99 74.67H112.97V76H111.71C110.991 76 110.44 75.832 110.058 75.496C109.675 75.16 109.484 74.614 109.484 73.858V69.588H108.574V68.286H109.484V66.368H111.094V68.286H112.97V69.588H111.094ZM117.545 72.108C117.545 71.3333 117.704 70.6473 118.021 70.05C118.348 69.4527 118.787 68.9907 119.337 68.664C119.897 68.328 120.513 68.16 121.185 68.16C121.792 68.16 122.319 68.2813 122.767 68.524C123.225 68.7573 123.589 69.0513 123.859 69.406V68.286H125.469V76H123.859V74.852C123.589 75.216 123.22 75.5193 122.753 75.762C122.287 76.0047 121.755 76.126 121.157 76.126C120.495 76.126 119.888 75.958 119.337 75.622C118.787 75.2767 118.348 74.8007 118.021 74.194C117.704 73.578 117.545 72.8827 117.545 72.108ZM123.859 72.136C123.859 71.604 123.747 71.142 123.523 70.75C123.309 70.358 123.024 70.0593 122.669 69.854C122.315 69.6487 121.932 69.546 121.521 69.546C121.111 69.546 120.728 69.6487 120.373 69.854C120.019 70.05 119.729 70.344 119.505 70.736C119.291 71.1187 119.183 71.576 119.183 72.108C119.183 72.64 119.291 73.1067 119.505 73.508C119.729 73.9093 120.019 74.2173 120.373 74.432C120.737 74.6373 121.12 74.74 121.521 74.74C121.932 74.74 122.315 74.6373 122.669 74.432C123.024 74.2267 123.309 73.928 123.523 73.536C123.747 73.1347 123.859 72.668 123.859 72.136ZM130.366 76.126C129.759 76.126 129.213 76.0187 128.728 75.804C128.252 75.58 127.874 75.2813 127.594 74.908C127.314 74.5253 127.164 74.1007 127.146 73.634H128.798C128.826 73.9607 128.98 74.236 129.26 74.46C129.549 74.6747 129.908 74.782 130.338 74.782C130.786 74.782 131.131 74.698 131.374 74.53C131.626 74.3527 131.752 74.1287 131.752 73.858C131.752 73.5687 131.612 73.354 131.332 73.214C131.061 73.074 130.627 72.92 130.03 72.752C129.451 72.5933 128.98 72.4393 128.616 72.29C128.252 72.1407 127.934 71.912 127.664 71.604C127.402 71.296 127.272 70.89 127.272 70.386C127.272 69.9753 127.393 69.602 127.636 69.266C127.878 68.9207 128.224 68.65 128.672 68.454C129.129 68.258 129.652 68.16 130.24 68.16C131.117 68.16 131.822 68.384 132.354 68.832C132.895 69.2707 133.184 69.8727 133.222 70.638H131.626C131.598 70.2927 131.458 70.0173 131.206 69.812C130.954 69.6067 130.613 69.504 130.184 69.504C129.764 69.504 129.442 69.5833 129.218 69.742C128.994 69.9007 128.882 70.1107 128.882 70.372C128.882 70.5773 128.956 70.75 129.106 70.89C129.255 71.03 129.437 71.142 129.652 71.226C129.866 71.3007 130.184 71.3987 130.604 71.52C131.164 71.6693 131.621 71.8233 131.976 71.982C132.34 72.1313 132.652 72.3553 132.914 72.654C133.175 72.9527 133.31 73.3493 133.32 73.844C133.32 74.2827 133.198 74.6747 132.956 75.02C132.713 75.3653 132.368 75.636 131.92 75.832C131.481 76.028 130.963 76.126 130.366 76.126ZM138.149 72.136C138.149 71.3427 138.308 70.6473 138.625 70.05C138.952 69.4433 139.4 68.9767 139.969 68.65C140.538 68.3233 141.192 68.16 141.929 68.16C142.862 68.16 143.632 68.384 144.239 68.832C144.855 69.2707 145.27 69.9007 145.485 70.722H143.763C143.623 70.3393 143.399 70.0407 143.091 69.826C142.783 69.6113 142.396 69.504 141.929 69.504C141.276 69.504 140.753 69.7373 140.361 70.204C139.978 70.6613 139.787 71.3053 139.787 72.136C139.787 72.9667 139.978 73.6153 140.361 74.082C140.753 74.5487 141.276 74.782 141.929 74.782C142.853 74.782 143.464 74.376 143.763 73.564H145.485C145.261 74.348 144.841 74.9733 144.225 75.44C143.609 75.8973 142.844 76.126 141.929 76.126C141.192 76.126 140.538 75.9627 139.969 75.636C139.4 75.3 138.952 74.8333 138.625 74.236C138.308 73.6293 138.149 72.9293 138.149 72.136ZM146.543 72.108C146.543 71.3333 146.702 70.6473 147.019 70.05C147.346 69.4527 147.785 68.9907 148.335 68.664C148.895 68.328 149.511 68.16 150.183 68.16C150.79 68.16 151.317 68.2813 151.765 68.524C152.223 68.7573 152.587 69.0513 152.857 69.406V68.286H154.467V76H152.857V74.852C152.587 75.216 152.218 75.5193 151.751 75.762C151.285 76.0047 150.753 76.126 150.155 76.126C149.493 76.126 148.886 75.958 148.335 75.622C147.785 75.2767 147.346 74.8007 147.019 74.194C146.702 73.578 146.543 72.8827 146.543 72.108ZM152.857 72.136C152.857 71.604 152.745 71.142 152.521 70.75C152.307 70.358 152.022 70.0593 151.667 69.854C151.313 69.6487 150.93 69.546 150.519 69.546C150.109 69.546 149.726 69.6487 149.371 69.854C149.017 70.05 148.727 70.344 148.503 70.736C148.289 71.1187 148.181 71.576 148.181 72.108C148.181 72.64 148.289 73.1067 148.503 73.508C148.727 73.9093 149.017 74.2173 149.371 74.432C149.735 74.6373 150.118 74.74 150.519 74.74C150.93 74.74 151.313 74.6373 151.667 74.432C152.022 74.2267 152.307 73.928 152.521 73.536C152.745 73.1347 152.857 72.668 152.857 72.136ZM158.16 65.64V76H156.564V65.64H158.16ZM161.851 65.64V76H160.255V65.64H161.851ZM166.746 76.126C166.14 76.126 165.594 76.0187 165.108 75.804C164.632 75.58 164.254 75.2813 163.974 74.908C163.694 74.5253 163.545 74.1007 163.526 73.634H165.178C165.206 73.9607 165.36 74.236 165.64 74.46C165.93 74.6747 166.289 74.782 166.718 74.782C167.166 74.782 167.512 74.698 167.754 74.53C168.006 74.3527 168.132 74.1287 168.132 73.858C168.132 73.5687 167.992 73.354 167.712 73.214C167.442 73.074 167.008 72.92 166.41 72.752C165.832 72.5933 165.36 72.4393 164.996 72.29C164.632 72.1407 164.315 71.912 164.044 71.604C163.783 71.296 163.652 70.89 163.652 70.386C163.652 69.9753 163.774 69.602 164.016 69.266C164.259 68.9207 164.604 68.65 165.052 68.454C165.51 68.258 166.032 68.16 166.62 68.16C167.498 68.16 168.202 68.384 168.734 68.832C169.276 69.2707 169.565 69.8727 169.602 70.638H168.006C167.978 70.2927 167.838 70.0173 167.586 69.812C167.334 69.6067 166.994 69.504 166.564 69.504C166.144 69.504 165.822 69.5833 165.598 69.742C165.374 69.9007 165.262 70.1107 165.262 70.372C165.262 70.5773 165.337 70.75 165.486 70.89C165.636 71.03 165.818 71.142 166.032 71.226C166.247 71.3007 166.564 71.3987 166.984 71.52C167.544 71.6693 168.002 71.8233 168.356 71.982C168.72 72.1313 169.033 72.3553 169.294 72.654C169.556 72.9527 169.691 73.3493 169.7 73.844C169.7 74.2827 169.579 74.6747 169.336 75.02C169.094 75.3653 168.748 75.636 168.3 75.832C167.862 76.028 167.344 76.126 166.746 76.126ZM178.17 68.16C178.767 68.16 179.294 68.2813 179.752 68.524C180.218 68.7573 180.582 69.0513 180.844 69.406V68.286H182.454V76.126C182.454 76.8353 182.304 77.4653 182.006 78.016C181.707 78.576 181.273 79.0147 180.704 79.332C180.144 79.6493 179.472 79.808 178.688 79.808C177.642 79.808 176.774 79.5607 176.084 79.066C175.393 78.5807 175.001 77.918 174.908 77.078H176.49C176.611 77.4793 176.868 77.8013 177.26 78.044C177.661 78.296 178.137 78.422 178.688 78.422C179.332 78.422 179.85 78.226 180.242 77.834C180.643 77.442 180.844 76.8727 180.844 76.126V74.838C180.573 75.202 180.204 75.51 179.738 75.762C179.28 76.0047 178.758 76.126 178.17 76.126C177.498 76.126 176.882 75.958 176.322 75.622C175.771 75.2767 175.332 74.8007 175.006 74.194C174.688 73.578 174.53 72.8827 174.53 72.108C174.53 71.3333 174.688 70.6473 175.006 70.05C175.332 69.4527 175.771 68.9907 176.322 68.664C176.882 68.328 177.498 68.16 178.17 68.16ZM180.844 72.136C180.844 71.604 180.732 71.142 180.508 70.75C180.293 70.358 180.008 70.0593 179.654 69.854C179.299 69.6487 178.916 69.546 178.506 69.546C178.095 69.546 177.712 69.6487 177.358 69.854C177.003 70.05 176.714 70.344 176.49 70.736C176.275 71.1187 176.168 71.576 176.168 72.108C176.168 72.64 176.275 73.1067 176.49 73.508C176.714 73.9093 177.003 74.2173 177.358 74.432C177.722 74.6373 178.104 74.74 178.506 74.74C178.916 74.74 179.299 74.6373 179.654 74.432C180.008 74.2267 180.293 73.928 180.508 73.536C180.732 73.1347 180.844 72.668 180.844 72.136ZM191.62 71.954C191.62 72.2433 191.601 72.5047 191.564 72.738H185.67C185.717 73.354 185.945 73.8487 186.356 74.222C186.767 74.5953 187.271 74.782 187.868 74.782C188.727 74.782 189.333 74.4227 189.688 73.704H191.41C191.177 74.4133 190.752 74.9967 190.136 75.454C189.529 75.902 188.773 76.126 187.868 76.126C187.131 76.126 186.468 75.9627 185.88 75.636C185.301 75.3 184.844 74.8333 184.508 74.236C184.181 73.6293 184.018 72.9293 184.018 72.136C184.018 71.3427 184.177 70.6473 184.494 70.05C184.821 69.4433 185.273 68.9767 185.852 68.65C186.44 68.3233 187.112 68.16 187.868 68.16C188.596 68.16 189.245 68.3187 189.814 68.636C190.383 68.9533 190.827 69.4013 191.144 69.98C191.461 70.5493 191.62 71.2073 191.62 71.954ZM189.954 71.45C189.945 70.862 189.735 70.3907 189.324 70.036C188.913 69.6813 188.405 69.504 187.798 69.504C187.247 69.504 186.776 69.6813 186.384 70.036C185.992 70.3813 185.759 70.8527 185.684 71.45H189.954ZM195.053 69.588V73.858C195.053 74.1473 195.118 74.3573 195.249 74.488C195.389 74.6093 195.622 74.67 195.949 74.67H196.929V76H195.669C194.95 76 194.399 75.832 194.017 75.496C193.634 75.16 193.443 74.614 193.443 73.858V69.588H192.533V68.286H193.443V66.368H195.053V68.286H196.929V69.588H195.053ZM201.2 76.126C200.593 76.126 200.047 76.0187 199.562 75.804C199.086 75.58 198.708 75.2813 198.428 74.908C198.148 74.5253 197.998 74.1007 197.98 73.634H199.632C199.66 73.9607 199.814 74.236 200.094 74.46C200.383 74.6747 200.742 74.782 201.172 74.782C201.62 74.782 201.965 74.698 202.208 74.53C202.46 74.3527 202.586 74.1287 202.586 73.858C202.586 73.5687 202.446 73.354 202.166 73.214C201.895 73.074 201.461 72.92 200.864 72.752C200.285 72.5933 199.814 72.4393 199.45 72.29C199.086 72.1407 198.768 71.912 198.498 71.604C198.236 71.296 198.106 70.89 198.106 70.386C198.106 69.9753 198.227 69.602 198.47 69.266C198.712 68.9207 199.058 68.65 199.506 68.454C199.963 68.258 200.486 68.16 201.074 68.16C201.951 68.16 202.656 68.384 203.188 68.832C203.729 69.2707 204.018 69.8727 204.056 70.638H202.46C202.432 70.2927 202.292 70.0173 202.04 69.812C201.788 69.6067 201.447 69.504 201.018 69.504C200.598 69.504 200.276 69.5833 200.052 69.742C199.828 69.9007 199.716 70.1107 199.716 70.372C199.716 70.5773 199.79 70.75 199.94 70.89C200.089 71.03 200.271 71.142 200.486 71.226C200.7 71.3007 201.018 71.3987 201.438 71.52C201.998 71.6693 202.455 71.8233 202.81 71.982C203.174 72.1313 203.486 72.3553 203.748 72.654C204.009 72.9527 204.144 73.3493 204.154 73.844C204.154 74.2827 204.032 74.6747 203.79 75.02C203.547 75.3653 203.202 75.636 202.754 75.832C202.315 76.028 201.797 76.126 201.2 76.126ZM212.315 76.126C211.708 76.126 211.162 76.0187 210.677 75.804C210.201 75.58 209.823 75.2813 209.543 74.908C209.263 74.5253 209.114 74.1007 209.095 73.634H210.747C210.775 73.9607 210.929 74.236 211.209 74.46C211.498 74.6747 211.858 74.782 212.287 74.782C212.735 74.782 213.08 74.698 213.323 74.53C213.575 74.3527 213.701 74.1287 213.701 73.858C213.701 73.5687 213.561 73.354 213.281 73.214C213.01 73.074 212.576 72.92 211.979 72.752C211.4 72.5933 210.929 72.4393 210.565 72.29C210.201 72.1407 209.884 71.912 209.613 71.604C209.352 71.296 209.221 70.89 209.221 70.386C209.221 69.9753 209.342 69.602 209.585 69.266C209.828 68.9207 210.173 68.65 210.621 68.454C211.078 68.258 211.601 68.16 212.189 68.16C213.066 68.16 213.771 68.384 214.303 68.832C214.844 69.2707 215.134 69.8727 215.171 70.638H213.575C213.547 70.2927 213.407 70.0173 213.155 69.812C212.903 69.6067 212.562 69.504 212.133 69.504C211.713 69.504 211.391 69.5833 211.167 69.742C210.943 69.9007 210.831 70.1107 210.831 70.372C210.831 70.5773 210.906 70.75 211.055 70.89C211.204 71.03 211.386 71.142 211.601 71.226C211.816 71.3007 212.133 71.3987 212.553 71.52C213.113 71.6693 213.57 71.8233 213.925 71.982C214.289 72.1313 214.602 72.3553 214.863 72.654C215.124 72.9527 215.26 73.3493 215.269 73.844C215.269 74.2827 215.148 74.6747 214.905 75.02C214.662 75.3653 214.317 75.636 213.869 75.832C213.43 76.028 212.912 76.126 212.315 76.126ZM216.461 72.136C216.461 71.3427 216.62 70.6473 216.937 70.05C217.264 69.4433 217.712 68.9767 218.281 68.65C218.851 68.3233 219.504 68.16 220.241 68.16C221.175 68.16 221.945 68.384 222.551 68.832C223.167 69.2707 223.583 69.9007 223.797 70.722H222.075C221.935 70.3393 221.711 70.0407 221.403 69.826C221.095 69.6113 220.708 69.504 220.241 69.504C219.588 69.504 219.065 69.7373 218.673 70.204C218.291 70.6613 218.099 71.3053 218.099 72.136C218.099 72.9667 218.291 73.6153 218.673 74.082C219.065 74.5487 219.588 74.782 220.241 74.782C221.165 74.782 221.777 74.376 222.075 73.564H223.797C223.573 74.348 223.153 74.9733 222.537 75.44C221.921 75.8973 221.156 76.126 220.241 76.126C219.504 76.126 218.851 75.9627 218.281 75.636C217.712 75.3 217.264 74.8333 216.937 74.236C216.62 73.6293 216.461 72.9293 216.461 72.136ZM229.378 68.16C229.966 68.16 230.489 68.286 230.946 68.538C231.413 68.79 231.777 69.1633 232.038 69.658C232.309 70.1527 232.444 70.75 232.444 71.45V76H230.862V71.688C230.862 70.9973 230.689 70.47 230.344 70.106C229.999 69.7327 229.527 69.546 228.93 69.546C228.333 69.546 227.857 69.7327 227.502 70.106C227.157 70.47 226.984 70.9973 226.984 71.688V76H225.388V65.64H226.984V69.182C227.255 68.8553 227.595 68.6033 228.006 68.426C228.426 68.2487 228.883 68.16 229.378 68.16ZM241.55 71.954C241.55 72.2433 241.531 72.5047 241.494 72.738H235.6C235.646 73.354 235.875 73.8487 236.286 74.222C236.696 74.5953 237.2 74.782 237.798 74.782C238.656 74.782 239.263 74.4227 239.618 73.704H241.34C241.106 74.4133 240.682 74.9967 240.066 75.454C239.459 75.902 238.703 76.126 237.798 76.126C237.06 76.126 236.398 75.9627 235.81 75.636C235.231 75.3 234.774 74.8333 234.438 74.236C234.111 73.6293 233.948 72.9293 233.948 72.136C233.948 71.3427 234.106 70.6473 234.424 70.05C234.75 69.4433 235.203 68.9767 235.782 68.65C236.37 68.3233 237.042 68.16 237.798 68.16C238.526 68.16 239.174 68.3187 239.744 68.636C240.313 68.9533 240.756 69.4013 241.074 69.98C241.391 70.5493 241.55 71.2073 241.55 71.954ZM239.884 71.45C239.874 70.862 239.664 70.3907 239.254 70.036C238.843 69.6813 238.334 69.504 237.728 69.504C237.177 69.504 236.706 69.6813 236.314 70.036C235.922 70.3813 235.688 70.8527 235.614 71.45H239.884ZM242.588 72.108C242.588 71.3333 242.747 70.6473 243.064 70.05C243.391 69.4527 243.83 68.9907 244.38 68.664C244.94 68.328 245.561 68.16 246.242 68.16C246.746 68.16 247.241 68.272 247.726 68.496C248.221 68.7107 248.613 69 248.902 69.364V65.64H250.512V76H248.902V74.838C248.641 75.2113 248.277 75.5193 247.81 75.762C247.353 76.0047 246.826 76.126 246.228 76.126C245.556 76.126 244.94 75.958 244.38 75.622C243.83 75.2767 243.391 74.8007 243.064 74.194C242.747 73.578 242.588 72.8827 242.588 72.108ZM248.902 72.136C248.902 71.604 248.79 71.142 248.566 70.75C248.352 70.358 248.067 70.0593 247.712 69.854C247.358 69.6487 246.975 69.546 246.564 69.546C246.154 69.546 245.771 69.6487 245.416 69.854C245.062 70.05 244.772 70.344 244.548 70.736C244.334 71.1187 244.226 71.576 244.226 72.108C244.226 72.64 244.334 73.1067 244.548 73.508C244.772 73.9093 245.062 74.2173 245.416 74.432C245.78 74.6373 246.163 74.74 246.564 74.74C246.975 74.74 247.358 74.6373 247.712 74.432C248.067 74.2267 248.352 73.928 248.566 73.536C248.79 73.1347 248.902 72.668 248.902 72.136ZM259.595 68.286V76H257.999V75.09C257.747 75.4073 257.415 75.6593 257.005 75.846C256.603 76.0233 256.174 76.112 255.717 76.112C255.11 76.112 254.564 75.986 254.079 75.734C253.603 75.482 253.225 75.1087 252.945 74.614C252.674 74.1193 252.539 73.522 252.539 72.822V68.286H254.121V72.584C254.121 73.2747 254.293 73.8067 254.639 74.18C254.984 74.544 255.455 74.726 256.053 74.726C256.65 74.726 257.121 74.544 257.467 74.18C257.821 73.8067 257.999 73.2747 257.999 72.584V68.286H259.595ZM263.296 65.64V76H261.7V65.64H263.296ZM272.462 71.954C272.462 72.2433 272.443 72.5047 272.406 72.738H266.512C266.558 73.354 266.787 73.8487 267.198 74.222C267.608 74.5953 268.112 74.782 268.71 74.782C269.568 74.782 270.175 74.4227 270.53 73.704H272.252C272.018 74.4133 271.594 74.9967 270.978 75.454C270.371 75.902 269.615 76.126 268.71 76.126C267.972 76.126 267.31 75.9627 266.722 75.636C266.143 75.3 265.686 74.8333 265.35 74.236C265.023 73.6293 264.86 72.9293 264.86 72.136C264.86 71.3427 265.018 70.6473 265.336 70.05C265.662 69.4433 266.115 68.9767 266.694 68.65C267.282 68.3233 267.954 68.16 268.71 68.16C269.438 68.16 270.086 68.3187 270.656 68.636C271.225 68.9533 271.668 69.4013 271.986 69.98C272.303 70.5493 272.462 71.2073 272.462 71.954ZM270.796 71.45C270.786 70.862 270.576 70.3907 270.166 70.036C269.755 69.6813 269.246 69.504 268.64 69.504C268.089 69.504 267.618 69.6813 267.226 70.036C266.834 70.3813 266.6 70.8527 266.526 71.45H270.796ZM273.5 72.108C273.5 71.3333 273.659 70.6473 273.976 70.05C274.303 69.4527 274.742 68.9907 275.292 68.664C275.852 68.328 276.473 68.16 277.154 68.16C277.658 68.16 278.153 68.272 278.638 68.496C279.133 68.7107 279.525 69 279.814 69.364V65.64H281.424V76H279.814V74.838C279.553 75.2113 279.189 75.5193 278.722 75.762C278.265 76.0047 277.738 76.126 277.14 76.126C276.468 76.126 275.852 75.958 275.292 75.622C274.742 75.2767 274.303 74.8007 273.976 74.194C273.659 73.578 273.5 72.8827 273.5 72.108ZM279.814 72.136C279.814 71.604 279.702 71.142 279.478 70.75C279.264 70.358 278.979 70.0593 278.624 69.854C278.27 69.6487 277.887 69.546 277.476 69.546C277.066 69.546 276.683 69.6487 276.328 69.854C275.974 70.05 275.684 70.344 275.46 70.736C275.246 71.1187 275.138 71.576 275.138 72.108C275.138 72.64 275.246 73.1067 275.46 73.508C275.684 73.9093 275.974 74.2173 276.328 74.432C276.692 74.6373 277.075 74.74 277.476 74.74C277.887 74.74 278.27 74.6373 278.624 74.432C278.979 74.2267 279.264 73.928 279.478 73.536C279.702 73.1347 279.814 72.668 279.814 72.136ZM290.503 76.126C289.775 76.126 289.117 75.9627 288.529 75.636C287.941 75.3 287.479 74.8333 287.143 74.236C286.807 73.6293 286.639 72.9293 286.639 72.136C286.639 71.352 286.812 70.6567 287.157 70.05C287.503 69.4433 287.974 68.9767 288.571 68.65C289.169 68.3233 289.836 68.16 290.573 68.16C291.311 68.16 291.978 68.3233 292.575 68.65C293.173 68.9767 293.644 69.4433 293.989 70.05C294.335 70.6567 294.507 71.352 294.507 72.136C294.507 72.92 294.33 73.6153 293.975 74.222C293.621 74.8287 293.135 75.3 292.519 75.636C291.913 75.9627 291.241 76.126 290.503 76.126ZM290.503 74.74C290.914 74.74 291.297 74.642 291.651 74.446C292.015 74.25 292.309 73.956 292.533 73.564C292.757 73.172 292.869 72.696 292.869 72.136C292.869 71.576 292.762 71.1047 292.547 70.722C292.333 70.33 292.048 70.036 291.693 69.84C291.339 69.644 290.956 69.546 290.545 69.546C290.135 69.546 289.752 69.644 289.397 69.84C289.052 70.036 288.777 70.33 288.571 70.722C288.366 71.1047 288.263 71.576 288.263 72.136C288.263 72.9667 288.473 73.6107 288.893 74.068C289.323 74.516 289.859 74.74 290.503 74.74ZM299.977 68.16C300.584 68.16 301.125 68.286 301.601 68.538C302.086 68.79 302.464 69.1633 302.735 69.658C303.006 70.1527 303.141 70.75 303.141 71.45V76H301.559V71.688C301.559 70.9973 301.386 70.47 301.041 70.106C300.696 69.7327 300.224 69.546 299.627 69.546C299.03 69.546 298.554 69.7327 298.199 70.106C297.854 70.47 297.681 70.9973 297.681 71.688V76H296.085V68.286H297.681V69.168C297.942 68.8507 298.274 68.6033 298.675 68.426C299.086 68.2487 299.52 68.16 299.977 68.16ZM315.856 69.07C315.604 68.5847 315.254 68.2207 314.806 67.978C314.358 67.726 313.84 67.6 313.252 67.6C312.608 67.6 312.034 67.7447 311.53 68.034C311.026 68.3233 310.629 68.734 310.34 69.266C310.06 69.798 309.92 70.414 309.92 71.114C309.92 71.814 310.06 72.4347 310.34 72.976C310.629 73.508 311.026 73.9187 311.53 74.208C312.034 74.4973 312.608 74.642 313.252 74.642C314.12 74.642 314.824 74.3993 315.366 73.914C315.907 73.4287 316.238 72.7707 316.36 71.94H312.706V70.666H318.068V71.912C317.965 72.668 317.694 73.3633 317.256 73.998C316.826 74.6327 316.262 75.1413 315.562 75.524C314.871 75.8973 314.101 76.084 313.252 76.084C312.337 76.084 311.502 75.874 310.746 75.454C309.99 75.0247 309.388 74.432 308.94 73.676C308.501 72.92 308.282 72.066 308.282 71.114C308.282 70.162 308.501 69.308 308.94 68.552C309.388 67.796 309.99 67.208 310.746 66.788C311.511 66.3587 312.346 66.144 313.252 66.144C314.288 66.144 315.207 66.4007 316.01 66.914C316.822 67.418 317.41 68.1367 317.774 69.07H315.856ZM326.628 68.286V76H325.032V75.09C324.78 75.4073 324.448 75.6593 324.038 75.846C323.636 76.0233 323.207 76.112 322.75 76.112C322.143 76.112 321.597 75.986 321.112 75.734C320.636 75.482 320.258 75.1087 319.978 74.614C319.707 74.1193 319.572 73.522 319.572 72.822V68.286H321.154V72.584C321.154 73.2747 321.326 73.8067 321.672 74.18C322.017 74.544 322.488 74.726 323.086 74.726C323.683 74.726 324.154 74.544 324.5 74.18C324.854 73.8067 325.032 73.2747 325.032 72.584V68.286H326.628ZM338.072 68.16C338.678 68.16 339.22 68.286 339.696 68.538C340.181 68.79 340.559 69.1633 340.83 69.658C341.11 70.1527 341.25 70.75 341.25 71.45V76H339.668V71.688C339.668 70.9973 339.495 70.47 339.15 70.106C338.804 69.7327 338.333 69.546 337.736 69.546C337.138 69.546 336.662 69.7327 336.308 70.106C335.962 70.47 335.79 70.9973 335.79 71.688V76H334.208V71.688C334.208 70.9973 334.035 70.47 333.69 70.106C333.344 69.7327 332.873 69.546 332.276 69.546C331.678 69.546 331.202 69.7327 330.848 70.106C330.502 70.47 330.33 70.9973 330.33 71.688V76H328.734V68.286H330.33V69.168C330.591 68.8507 330.922 68.6033 331.324 68.426C331.725 68.2487 332.154 68.16 332.612 68.16C333.228 68.16 333.778 68.2907 334.264 68.552C334.749 68.8133 335.122 69.1913 335.384 69.686C335.617 69.2193 335.981 68.8507 336.476 68.58C336.97 68.3 337.502 68.16 338.072 68.16ZM346.08 76.126C345.474 76.126 344.928 76.0187 344.442 75.804C343.966 75.58 343.588 75.2813 343.308 74.908C343.028 74.5253 342.879 74.1007 342.86 73.634H344.512C344.54 73.9607 344.694 74.236 344.974 74.46C345.264 74.6747 345.623 74.782 346.052 74.782C346.5 74.782 346.846 74.698 347.088 74.53C347.34 74.3527 347.466 74.1287 347.466 73.858C347.466 73.5687 347.326 73.354 347.046 73.214C346.776 73.074 346.342 72.92 345.744 72.752C345.166 72.5933 344.694 72.4393 344.33 72.29C343.966 72.1407 343.649 71.912 343.378 71.604C343.117 71.296 342.986 70.89 342.986 70.386C342.986 69.9753 343.108 69.602 343.35 69.266C343.593 68.9207 343.938 68.65 344.386 68.454C344.844 68.258 345.366 68.16 345.954 68.16C346.832 68.16 347.536 68.384 348.068 68.832C348.61 69.2707 348.899 69.8727 348.936 70.638H347.34C347.312 70.2927 347.172 70.0173 346.92 69.812C346.668 69.6067 346.328 69.504 345.898 69.504C345.478 69.504 345.156 69.5833 344.932 69.742C344.708 69.9007 344.596 70.1107 344.596 70.372C344.596 70.5773 344.671 70.75 344.82 70.89C344.97 71.03 345.152 71.142 345.366 71.226C345.581 71.3007 345.898 71.3987 346.318 71.52C346.878 71.6693 347.336 71.8233 347.69 71.982C348.054 72.1313 348.367 72.3553 348.628 72.654C348.89 72.9527 349.025 73.3493 349.034 73.844C349.034 74.2827 348.913 74.6747 348.67 75.02C348.428 75.3653 348.082 75.636 347.634 75.832C347.196 76.028 346.678 76.126 346.08 76.126ZM352.621 69.588V73.858C352.621 74.1473 352.686 74.3573 352.817 74.488C352.957 74.6093 353.19 74.67 353.517 74.67H354.497V76H353.237C352.518 76 351.968 75.832 351.585 75.496C351.202 75.16 351.011 74.614 351.011 73.858V69.588H350.101V68.286H351.011V66.368H352.621V68.286H354.497V69.588H352.621ZM355.436 72.108C355.436 71.3333 355.595 70.6473 355.912 70.05C356.239 69.4527 356.677 68.9907 357.228 68.664C357.788 68.328 358.404 68.16 359.076 68.16C359.683 68.16 360.21 68.2813 360.658 68.524C361.115 68.7573 361.479 69.0513 361.75 69.406V68.286H363.36V76H361.75V74.852C361.479 75.216 361.111 75.5193 360.644 75.762C360.177 76.0047 359.645 76.126 359.048 76.126C358.385 76.126 357.779 75.958 357.228 75.622C356.677 75.2767 356.239 74.8007 355.912 74.194C355.595 73.578 355.436 72.8827 355.436 72.108ZM361.75 72.136C361.75 71.604 361.638 71.142 361.414 70.75C361.199 70.358 360.915 70.0593 360.56 69.854C360.205 69.6487 359.823 69.546 359.412 69.546C359.001 69.546 358.619 69.6487 358.264 69.854C357.909 70.05 357.62 70.344 357.396 70.736C357.181 71.1187 357.074 71.576 357.074 72.108C357.074 72.64 357.181 73.1067 357.396 73.508C357.62 73.9093 357.909 74.2173 358.264 74.432C358.628 74.6373 359.011 74.74 359.412 74.74C359.823 74.74 360.205 74.6373 360.56 74.432C360.915 74.2267 361.199 73.928 361.414 73.536C361.638 73.1347 361.75 72.668 361.75 72.136ZM364.924 72.136C364.924 71.3427 365.083 70.6473 365.4 70.05C365.727 69.4433 366.175 68.9767 366.744 68.65C367.314 68.3233 367.967 68.16 368.704 68.16C369.638 68.16 370.408 68.384 371.014 68.832C371.63 69.2707 372.046 69.9007 372.26 70.722H370.538C370.398 70.3393 370.174 70.0407 369.866 69.826C369.558 69.6113 369.171 69.504 368.704 69.504C368.051 69.504 367.528 69.7373 367.136 70.204C366.754 70.6613 366.562 71.3053 366.562 72.136C366.562 72.9667 366.754 73.6153 367.136 74.082C367.528 74.5487 368.051 74.782 368.704 74.782C369.628 74.782 370.24 74.376 370.538 73.564H372.26C372.036 74.348 371.616 74.9733 371 75.44C370.384 75.8973 369.619 76.126 368.704 76.126C367.967 76.126 367.314 75.9627 366.744 75.636C366.175 75.3 365.727 74.8333 365.4 74.236C365.083 73.6293 364.924 72.9293 364.924 72.136ZM376.903 72.15L380.459 76H378.303L375.447 72.682V76H373.851V65.64H375.447V71.66L378.247 68.286H380.459L376.903 72.15Z" fill="#231741"/>
<rect x="47.5" y="131.5" width="335" height="43" rx="3.5" fill="white" stroke="#231741"/>
<path d="M286 132H379C380.657 132 382 133.343 382 135V171C382 172.657 380.657 174 379 174H286V132Z" fill="#231741"/>
<path d="M324.382 156.872H319.934L319.198 159H316.846L320.862 147.816H323.47L327.486 159H325.118L324.382 156.872ZM323.774 155.08L322.158 150.408L320.542 155.08H323.774ZM328.411 154.536C328.411 153.64 328.587 152.845 328.939 152.152C329.301 151.459 329.792 150.925 330.411 150.552C331.029 150.179 331.717 149.992 332.475 149.992C333.051 149.992 333.6 150.12 334.123 150.376C334.645 150.621 335.061 150.952 335.371 151.368V147.16H337.643V159H335.371V157.688C335.093 158.125 334.704 158.477 334.203 158.744C333.701 159.011 333.12 159.144 332.459 159.144C331.712 159.144 331.029 158.952 330.411 158.568C329.792 158.184 329.301 157.645 328.939 156.952C328.587 156.248 328.411 155.443 328.411 154.536ZM335.387 154.568C335.387 154.024 335.28 153.56 335.067 153.176C334.853 152.781 334.565 152.483 334.203 152.28C333.84 152.067 333.451 151.96 333.035 151.96C332.619 151.96 332.235 152.061 331.883 152.264C331.531 152.467 331.243 152.765 331.019 153.16C330.805 153.544 330.699 154.003 330.699 154.536C330.699 155.069 330.805 155.539 331.019 155.944C331.243 156.339 331.531 156.643 331.883 156.856C332.245 157.069 332.629 157.176 333.035 157.176C333.451 157.176 333.84 157.075 334.203 156.872C334.565 156.659 334.853 156.36 335.067 155.976C335.28 155.581 335.387 155.112 335.387 154.568ZM339.255 154.536C339.255 153.64 339.431 152.845 339.783 152.152C340.145 151.459 340.636 150.925 341.255 150.552C341.873 150.179 342.561 149.992 343.319 149.992C343.895 149.992 344.444 150.12 344.967 150.376C345.489 150.621 345.905 150.952 346.215 151.368V147.16H348.487V159H346.215V157.688C345.937 158.125 345.548 158.477 345.047 158.744C344.545 159.011 343.964 159.144 343.303 159.144C342.556 159.144 341.873 158.952 341.255 158.568C340.636 158.184 340.145 157.645 339.783 156.952C339.431 156.248 339.255 155.443 339.255 154.536ZM346.231 154.568C346.231 154.024 346.124 153.56 345.911 153.176C345.697 152.781 345.409 152.483 345.047 152.28C344.684 152.067 344.295 151.96 343.879 151.96C343.463 151.96 343.079 152.061 342.727 152.264C342.375 152.467 342.087 152.765 341.863 153.16C341.649 153.544 341.543 154.003 341.543 154.536C341.543 155.069 341.649 155.539 341.863 155.944C342.087 156.339 342.375 156.643 342.727 156.856C343.089 157.069 343.473 157.176 343.879 157.176C344.295 157.176 344.684 157.075 345.047 156.872C345.409 156.659 345.697 156.36 345.911 155.976C346.124 155.581 346.231 155.112 346.231 154.568Z" fill="white"/>
<path d="M68.373 151.08C68.085 150.525 67.685 150.109 67.173 149.832C66.661 149.544 66.069 149.4 65.397 149.4C64.661 149.4 64.005 149.565 63.429 149.896C62.853 150.227 62.3997 150.696 62.069 151.304C61.749 151.912 61.589 152.616 61.589 153.416C61.589 154.216 61.749 154.925 62.069 155.544C62.3997 156.152 62.853 156.621 63.429 156.952C64.005 157.283 64.661 157.448 65.397 157.448C66.389 157.448 67.1943 157.171 67.813 156.616C68.4317 156.061 68.8103 155.309 68.949 154.36H64.773V152.904H70.901V154.328C70.7837 155.192 70.4743 155.987 69.973 156.712C69.4823 157.437 68.837 158.019 68.037 158.456C67.2477 158.883 66.3677 159.096 65.397 159.096C64.3517 159.096 63.397 158.856 62.533 158.376C61.669 157.885 60.981 157.208 60.469 156.344C59.9677 155.48 59.717 154.504 59.717 153.416C59.717 152.328 59.9677 151.352 60.469 150.488C60.981 149.624 61.669 148.952 62.533 148.472C63.4077 147.981 64.3623 147.736 65.397 147.736C66.581 147.736 67.6317 148.029 68.549 148.616C69.477 149.192 70.149 150.013 70.565 151.08H68.373ZM80.78 154.376C80.78 154.707 80.7587 155.005 80.716 155.272H73.98C74.0333 155.976 74.2947 156.541 74.764 156.968C75.2333 157.395 75.8093 157.608 76.492 157.608C77.4733 157.608 78.1667 157.197 78.572 156.376H80.54C80.2733 157.187 79.788 157.853 79.084 158.376C78.3907 158.888 77.5267 159.144 76.492 159.144C75.6493 159.144 74.892 158.957 74.22 158.584C73.5587 158.2 73.036 157.667 72.652 156.984C72.2787 156.291 72.092 155.491 72.092 154.584C72.092 153.677 72.2733 152.883 72.636 152.2C73.0093 151.507 73.5267 150.973 74.188 150.6C74.86 150.227 75.628 150.04 76.492 150.04C77.324 150.04 78.0653 150.221 78.716 150.584C79.3667 150.947 79.8733 151.459 80.236 152.12C80.5987 152.771 80.78 153.523 80.78 154.376ZM78.876 153.8C78.8653 153.128 78.6253 152.589 78.156 152.184C77.6867 151.779 77.1053 151.576 76.412 151.576C75.7827 151.576 75.244 151.779 74.796 152.184C74.348 152.579 74.0813 153.117 73.996 153.8H78.876ZM86.399 159.144C85.567 159.144 84.815 158.957 84.143 158.584C83.471 158.2 82.943 157.667 82.559 156.984C82.175 156.291 81.983 155.491 81.983 154.584C81.983 153.688 82.1803 152.893 82.575 152.2C82.9697 151.507 83.5083 150.973 84.191 150.6C84.8737 150.227 85.6363 150.04 86.479 150.04C87.3217 150.04 88.0843 150.227 88.767 150.6C89.4497 150.973 89.9883 151.507 90.383 152.2C90.7777 152.893 90.975 153.688 90.975 154.584C90.975 155.48 90.7723 156.275 90.367 156.968C89.9617 157.661 89.407 158.2 88.703 158.584C88.0097 158.957 87.2417 159.144 86.399 159.144ZM86.399 157.56C86.8683 157.56 87.3057 157.448 87.711 157.224C88.127 157 88.463 156.664 88.719 156.216C88.975 155.768 89.103 155.224 89.103 154.584C89.103 153.944 88.9803 153.405 88.735 152.968C88.4897 152.52 88.1643 152.184 87.759 151.96C87.3537 151.736 86.9163 151.624 86.447 151.624C85.9777 151.624 85.5403 151.736 85.135 151.96C84.7403 152.184 84.4257 152.52 84.191 152.968C83.9563 153.405 83.839 153.944 83.839 154.584C83.839 155.533 84.079 156.269 84.559 156.792C85.0497 157.304 85.663 157.56 86.399 157.56ZM94.6021 151.464C94.8688 151.016 95.2208 150.669 95.6581 150.424C96.1061 150.168 96.6341 150.04 97.2421 150.04V151.928H96.7781C96.0635 151.928 95.5195 152.109 95.1461 152.472C94.7835 152.835 94.6021 153.464 94.6021 154.36V159H92.7781V150.184H94.6021V151.464ZM102.471 150.04C103.153 150.04 103.756 150.179 104.279 150.456C104.812 150.723 105.228 151.059 105.527 151.464V150.184H107.367V159.144C107.367 159.955 107.196 160.675 106.855 161.304C106.513 161.944 106.017 162.445 105.367 162.808C104.727 163.171 103.959 163.352 103.063 163.352C101.868 163.352 100.876 163.069 100.087 162.504C99.2974 161.949 98.8494 161.192 98.7428 160.232H100.551C100.689 160.691 100.983 161.059 101.431 161.336C101.889 161.624 102.433 161.768 103.063 161.768C103.799 161.768 104.391 161.544 104.839 161.096C105.297 160.648 105.527 159.997 105.527 159.144V157.672C105.217 158.088 104.796 158.44 104.263 158.728C103.74 159.005 103.143 159.144 102.471 159.144C101.703 159.144 100.999 158.952 100.359 158.568C99.7294 158.173 99.2281 157.629 98.8548 156.936C98.4921 156.232 98.3108 155.437 98.3108 154.552C98.3108 153.667 98.4921 152.883 98.8548 152.2C99.2281 151.517 99.7294 150.989 100.359 150.616C100.999 150.232 101.703 150.04 102.471 150.04ZM105.527 154.584C105.527 153.976 105.399 153.448 105.143 153C104.897 152.552 104.572 152.211 104.167 151.976C103.761 151.741 103.324 151.624 102.855 151.624C102.385 151.624 101.948 151.741 101.543 151.976C101.137 152.2 100.807 152.536 100.551 152.984C100.305 153.421 100.183 153.944 100.183 154.552C100.183 155.16 100.305 155.693 100.551 156.152C100.807 156.611 101.137 156.963 101.543 157.208C101.959 157.443 102.396 157.56 102.855 157.56C103.324 157.56 103.761 157.443 104.167 157.208C104.572 156.973 104.897 156.632 105.143 156.184C105.399 155.725 105.527 155.192 105.527 154.584ZM117.843 154.376C117.843 154.707 117.821 155.005 117.779 155.272H111.043C111.096 155.976 111.357 156.541 111.827 156.968C112.296 157.395 112.872 157.608 113.555 157.608C114.536 157.608 115.229 157.197 115.635 156.376H117.602C117.336 157.187 116.851 157.853 116.147 158.376C115.453 158.888 114.589 159.144 113.555 159.144C112.712 159.144 111.955 158.957 111.283 158.584C110.621 158.2 110.099 157.667 109.715 156.984C109.341 156.291 109.155 155.491 109.155 154.584C109.155 153.677 109.336 152.883 109.699 152.2C110.072 151.507 110.589 150.973 111.251 150.6C111.923 150.227 112.691 150.04 113.555 150.04C114.387 150.04 115.128 150.221 115.779 150.584C116.429 150.947 116.936 151.459 117.299 152.12C117.661 152.771 117.843 153.523 117.843 154.376ZM115.939 153.8C115.928 153.128 115.688 152.589 115.219 152.184C114.749 151.779 114.168 151.576 113.475 151.576C112.845 151.576 112.307 151.779 111.859 152.184C111.411 152.579 111.144 153.117 111.059 153.8H115.939ZM127.845 148.664C129.062 148.664 130.112 148.888 130.998 149.336C131.883 149.784 132.555 150.413 133.014 151.224C133.483 152.024 133.718 152.957 133.718 154.024C133.718 154.877 133.568 155.693 133.27 156.472C132.982 157.251 132.56 157.885 132.006 158.376C131.462 158.867 130.816 159.112 130.07 159.112C129.526 159.112 129.099 158.995 128.79 158.76C128.48 158.515 128.288 158.173 128.214 157.736C127.883 158.163 127.467 158.499 126.966 158.744C126.464 158.989 125.942 159.112 125.398 159.112C124.576 159.112 123.931 158.867 123.462 158.376C123.003 157.875 122.774 157.197 122.774 156.344C122.774 155.533 122.939 154.776 123.27 154.072C123.611 153.368 124.086 152.808 124.694 152.392C125.302 151.965 125.984 151.752 126.742 151.752C127.67 151.752 128.32 152.067 128.694 152.696L128.838 151.896H130.422L129.622 156.472C129.59 156.696 129.574 156.893 129.574 157.064C129.574 157.341 129.627 157.549 129.734 157.688C129.851 157.827 130.054 157.896 130.342 157.896C130.747 157.896 131.094 157.699 131.382 157.304C131.67 156.899 131.883 156.403 132.022 155.816C132.171 155.229 132.246 154.659 132.246 154.104C132.246 152.749 131.851 151.715 131.062 151C130.272 150.285 129.126 149.928 127.622 149.928C126.363 149.928 125.232 150.227 124.23 150.824C123.238 151.421 122.459 152.243 121.894 153.288C121.328 154.333 121.046 155.496 121.046 156.776C121.046 158.141 121.451 159.181 122.262 159.896C123.072 160.611 124.23 160.968 125.734 160.968C126.747 160.968 127.632 160.781 128.39 160.408L128.63 161.624C127.659 162.04 126.571 162.248 125.366 162.248C124.203 162.248 123.184 162.029 122.31 161.592C121.435 161.155 120.758 160.531 120.278 159.72C119.798 158.92 119.558 157.987 119.558 156.92C119.558 155.395 119.91 154.003 120.614 152.744C121.328 151.485 122.315 150.493 123.574 149.768C124.832 149.032 126.256 148.664 127.845 148.664ZM125.958 157.704C126.406 157.704 126.811 157.576 127.174 157.32C127.547 157.053 127.84 156.707 128.054 156.28C128.267 155.843 128.374 155.379 128.374 154.888C128.374 154.376 128.23 153.96 127.942 153.64C127.664 153.309 127.27 153.144 126.758 153.144C126.299 153.144 125.894 153.288 125.542 153.576C125.2 153.853 124.934 154.216 124.742 154.664C124.56 155.112 124.47 155.581 124.47 156.072C124.47 156.573 124.592 156.973 124.838 157.272C125.083 157.56 125.456 157.704 125.958 157.704ZM139.596 150.04C140.278 150.04 140.881 150.179 141.404 150.456C141.937 150.723 142.353 151.059 142.652 151.464V150.184H144.492V159.144C144.492 159.955 144.321 160.675 143.98 161.304C143.638 161.944 143.142 162.445 142.492 162.808C141.852 163.171 141.084 163.352 140.188 163.352C138.993 163.352 138.001 163.069 137.212 162.504C136.422 161.949 135.974 161.192 135.868 160.232H137.676C137.814 160.691 138.108 161.059 138.556 161.336C139.014 161.624 139.558 161.768 140.188 161.768C140.924 161.768 141.516 161.544 141.964 161.096C142.422 160.648 142.652 159.997 142.652 159.144V157.672C142.342 158.088 141.921 158.44 141.388 158.728C140.865 159.005 140.268 159.144 139.596 159.144C138.828 159.144 138.124 158.952 137.484 158.568C136.854 158.173 136.353 157.629 135.98 156.936C135.617 156.232 135.436 155.437 135.436 154.552C135.436 153.667 135.617 152.883 135.98 152.2C136.353 151.517 136.854 150.989 137.484 150.616C138.124 150.232 138.828 150.04 139.596 150.04ZM142.652 154.584C142.652 153.976 142.524 153.448 142.268 153C142.022 152.552 141.697 152.211 141.292 151.976C140.886 151.741 140.449 151.624 139.98 151.624C139.51 151.624 139.073 151.741 138.668 151.976C138.262 152.2 137.932 152.536 137.676 152.984C137.43 153.421 137.308 153.944 137.308 154.552C137.308 155.16 137.43 155.693 137.676 156.152C137.932 156.611 138.262 156.963 138.668 157.208C139.084 157.443 139.521 157.56 139.98 157.56C140.449 157.56 140.886 157.443 141.292 157.208C141.697 156.973 142.022 156.632 142.268 156.184C142.524 155.725 142.652 155.192 142.652 154.584ZM157.56 150.04C158.253 150.04 158.872 150.184 159.416 150.472C159.97 150.76 160.402 151.187 160.712 151.752C161.032 152.317 161.192 153 161.192 153.8V159H159.384V154.072C159.384 153.283 159.186 152.68 158.792 152.264C158.397 151.837 157.858 151.624 157.176 151.624C156.493 151.624 155.949 151.837 155.544 152.264C155.149 152.68 154.952 153.283 154.952 154.072V159H153.144V154.072C153.144 153.283 152.946 152.68 152.552 152.264C152.157 151.837 151.618 151.624 150.936 151.624C150.253 151.624 149.709 151.837 149.304 152.264C148.909 152.68 148.712 153.283 148.712 154.072V159H146.888V150.184H148.712V151.192C149.01 150.829 149.389 150.547 149.848 150.344C150.306 150.141 150.797 150.04 151.32 150.04C152.024 150.04 152.653 150.189 153.208 150.488C153.762 150.787 154.189 151.219 154.488 151.784C154.754 151.251 155.17 150.829 155.736 150.52C156.301 150.2 156.909 150.04 157.56 150.04ZM162.905 154.552C162.905 153.667 163.086 152.883 163.449 152.2C163.822 151.517 164.323 150.989 164.953 150.616C165.593 150.232 166.297 150.04 167.065 150.04C167.758 150.04 168.361 150.179 168.873 150.456C169.395 150.723 169.811 151.059 170.121 151.464V150.184H171.961V159H170.121V157.688C169.811 158.104 169.39 158.451 168.857 158.728C168.323 159.005 167.715 159.144 167.033 159.144C166.275 159.144 165.582 158.952 164.953 158.568C164.323 158.173 163.822 157.629 163.449 156.936C163.086 156.232 162.905 155.437 162.905 154.552ZM170.121 154.584C170.121 153.976 169.993 153.448 169.737 153C169.491 152.552 169.166 152.211 168.761 151.976C168.355 151.741 167.918 151.624 167.449 151.624C166.979 151.624 166.542 151.741 166.137 151.976C165.731 152.2 165.401 152.536 165.145 152.984C164.899 153.421 164.777 153.944 164.777 154.552C164.777 155.16 164.899 155.693 165.145 156.152C165.401 156.611 165.731 156.963 166.137 157.208C166.553 157.443 166.99 157.56 167.449 157.56C167.918 157.56 168.355 157.443 168.761 157.208C169.166 156.973 169.491 156.632 169.737 156.184C169.993 155.725 170.121 155.192 170.121 154.584ZM175.284 149.016C174.954 149.016 174.676 148.904 174.452 148.68C174.228 148.456 174.116 148.179 174.116 147.848C174.116 147.517 174.228 147.24 174.452 147.016C174.676 146.792 174.954 146.68 175.284 146.68C175.604 146.68 175.876 146.792 176.1 147.016C176.324 147.24 176.436 147.517 176.436 147.848C176.436 148.179 176.324 148.456 176.1 148.68C175.876 148.904 175.604 149.016 175.284 149.016ZM176.18 150.184V159H174.356V150.184H176.18ZM180.399 147.16V159H178.575V147.16H180.399ZM183.53 159.112C183.199 159.112 182.922 159 182.698 158.776C182.474 158.552 182.362 158.275 182.362 157.944C182.362 157.613 182.474 157.336 182.698 157.112C182.922 156.888 183.199 156.776 183.53 156.776C183.85 156.776 184.122 156.888 184.346 157.112C184.57 157.336 184.682 157.613 184.682 157.944C184.682 158.275 184.57 158.552 184.346 158.776C184.122 159 183.85 159.112 183.53 159.112ZM186.045 154.584C186.045 153.677 186.226 152.883 186.589 152.2C186.962 151.507 187.474 150.973 188.125 150.6C188.776 150.227 189.522 150.04 190.365 150.04C191.432 150.04 192.312 150.296 193.005 150.808C193.709 151.309 194.184 152.029 194.429 152.968H192.461C192.301 152.531 192.045 152.189 191.693 151.944C191.341 151.699 190.898 151.576 190.365 151.576C189.618 151.576 189.021 151.843 188.573 152.376C188.136 152.899 187.917 153.635 187.917 154.584C187.917 155.533 188.136 156.275 188.573 156.808C189.021 157.341 189.618 157.608 190.365 157.608C191.421 157.608 192.12 157.144 192.461 156.216H194.429C194.173 157.112 193.693 157.827 192.989 158.36C192.285 158.883 191.41 159.144 190.365 159.144C189.522 159.144 188.776 158.957 188.125 158.584C187.474 158.2 186.962 157.667 186.589 156.984C186.226 156.291 186.045 155.491 186.045 154.584ZM200.071 159.144C199.239 159.144 198.487 158.957 197.815 158.584C197.143 158.2 196.615 157.667 196.231 156.984C195.847 156.291 195.655 155.491 195.655 154.584C195.655 153.688 195.852 152.893 196.247 152.2C196.642 151.507 197.18 150.973 197.863 150.6C198.546 150.227 199.308 150.04 200.151 150.04C200.994 150.04 201.756 150.227 202.439 150.6C203.122 150.973 203.66 151.507 204.055 152.2C204.45 152.893 204.647 153.688 204.647 154.584C204.647 155.48 204.444 156.275 204.039 156.968C203.634 157.661 203.079 158.2 202.375 158.584C201.682 158.957 200.914 159.144 200.071 159.144ZM200.071 157.56C200.54 157.56 200.978 157.448 201.383 157.224C201.799 157 202.135 156.664 202.391 156.216C202.647 155.768 202.775 155.224 202.775 154.584C202.775 153.944 202.652 153.405 202.407 152.968C202.162 152.52 201.836 152.184 201.431 151.96C201.026 151.736 200.588 151.624 200.119 151.624C199.65 151.624 199.212 151.736 198.807 151.96C198.412 152.184 198.098 152.52 197.863 152.968C197.628 153.405 197.511 153.944 197.511 154.584C197.511 155.533 197.751 156.269 198.231 156.792C198.722 157.304 199.335 157.56 200.071 157.56ZM217.122 150.04C217.815 150.04 218.434 150.184 218.978 150.472C219.533 150.76 219.965 151.187 220.274 151.752C220.594 152.317 220.754 153 220.754 153.8V159H218.946V154.072C218.946 153.283 218.749 152.68 218.354 152.264C217.959 151.837 217.421 151.624 216.738 151.624C216.055 151.624 215.511 151.837 215.106 152.264C214.711 152.68 214.514 153.283 214.514 154.072V159H212.706V154.072C212.706 153.283 212.509 152.68 212.114 152.264C211.719 151.837 211.181 151.624 210.498 151.624C209.815 151.624 209.271 151.837 208.866 152.264C208.471 152.68 208.274 153.283 208.274 154.072V159H206.45V150.184H208.274V151.192C208.573 150.829 208.951 150.547 209.41 150.344C209.869 150.141 210.359 150.04 210.882 150.04C211.586 150.04 212.215 150.189 212.77 150.488C213.325 150.787 213.751 151.219 214.05 151.784C214.317 151.251 214.733 150.829 215.298 150.52C215.863 150.2 216.471 150.04 217.122 150.04Z" fill="#3A3A3A"/>
<defs>
<filter id="filter0_d_0_595" x="0" y="0" width="430" height="242" filterUnits="userSpaceOnUse" color-interpolation-filters="sRGB">
<feFlood flood-opacity="0" result="BackgroundImageFix"/>
<feColorMatrix in="SourceAlpha" type="matrix" values="0 0 0 0 0 0 0 0 0 0 0 0 0 0 0 0 0 0 127 0" result="hardAlpha"/>
<feMorphology radius="1" operator="dilate" in="SourceAlpha" result="effect1_dropShadow_0_595"/>
<feOffset/>
<feGaussianBlur stdDeviation="1"/>
<feColorMatrix type="matrix" values="0 0 0 0 0 0 0 0 0 0 0 0 0 0 0 0 0 0 0.16 0"/>
<feBlend mode="normal" in2="BackgroundImageFix" result="effect1_dropShadow_0_595"/>
<feBlend mode="normal" in="SourceGraphic" in2="effect1_dropShadow_0_595" result="shape"/>
</filter>
</defs>
</svg>
