<svg width="32" height="32" viewBox="0 0 32 32" fill="none" xmlns="http://www.w3.org/2000/svg">
<circle cx="16" cy="16" r="16" fill="#F1F1F1"/>
<path d="M21.5038 20.5003V20.4998H21.5066V16.4657C21.5066 14.4923 21.0817 12.972 18.7746 12.972C17.6655 12.972 16.9212 13.5807 16.6173 14.1577H16.5852V13.1563H14.3977V20.4998H16.6755V16.8636C16.6755 15.9061 16.857 14.9804 18.0426 14.9804C19.2109 14.9804 19.2283 16.073 19.2283 16.925V20.5003H21.5038Z" fill="#5F6FBF"/>
<path d="M10.6875 13.1555H12.9681V20.499H10.6875V13.1555Z" fill="#5F6FBF"/>
<path d="M11.8208 9.5C11.0917 9.5 10.5 10.0917 10.5 10.8208C10.5 11.55 11.0917 12.1541 11.8208 12.1541C12.55 12.1541 13.1417 11.55 13.1417 10.8208C13.1412 10.0917 12.5496 9.5 11.8208 9.5V9.5Z" fill="#5F6FBF"/>
</svg>
