<svg width="24" height="26" viewBox="0 0 24 26" fill="none" xmlns="http://www.w3.org/2000/svg">
<g opacity="0.76">
<path d="M12.6324 1.64288V14.6632H11.2539V1.64288C11.2539 1.47237 11.3265 1.30886 11.4558 1.18829C11.585 1.06773 11.7603 1 11.9431 1C12.1259 1 12.3012 1.06773 12.4305 1.18829C12.5597 1.30886 12.6324 1.47237 12.6324 1.64288Z" fill="#5F6FBF" stroke="#5F6FBF" stroke-width="0.2"/>
<path d="M12.6324 20.2344V24.3573C12.6324 24.5279 12.5597 24.6914 12.4305 24.8119C12.3012 24.9325 12.1259 25.0002 11.9431 25.0002C11.7603 25.0002 11.585 24.9325 11.4558 24.8119C11.3265 24.6914 11.2539 24.5279 11.2539 24.3573V20.2344H12.6324Z" fill="#5F6FBF" stroke="#5F6FBF" stroke-width="0.2"/>
<path d="M4.35892 1.64288V5.92871H2.98047V1.64288C2.98047 1.47237 3.05308 1.30886 3.18234 1.18829C3.31159 1.06773 3.4869 1 3.6697 1C3.85249 1 4.0278 1.06773 4.15705 1.18829C4.28631 1.30886 4.35892 1.47237 4.35892 1.64288Z" fill="#5F6FBF" stroke="#5F6FBF" stroke-width="0.2"/>
<path d="M4.35892 11.5V24.3575C4.35892 24.528 4.28631 24.6915 4.15705 24.8121C4.0278 24.9327 3.85249 25.0004 3.6697 25.0004C3.4869 25.0004 3.31159 24.9327 3.18234 24.8121C3.05308 24.6915 2.98047 24.528 2.98047 24.3575V11.5H4.35892Z" fill="#5F6FBF" stroke="#5F6FBF" stroke-width="0.2"/>
<path d="M20.9011 11.5V24.3575C20.9011 24.528 20.8285 24.6915 20.6992 24.8121C20.57 24.9327 20.3947 25.0004 20.2119 25.0004C20.0291 25.0004 19.8538 24.9327 19.7245 24.8121C19.5953 24.6915 19.5226 24.528 19.5226 24.3575V11.5H20.9011Z" fill="#5F6FBF" stroke="#5F6FBF" stroke-width="0.2"/>
<path d="M20.9011 1.64288V5.92871H19.5226V1.64288C19.5226 1.47237 19.5953 1.30886 19.7245 1.18829C19.8538 1.06773 20.0291 1 20.2119 1C20.3947 1 20.57 1.06773 20.6992 1.18829C20.8285 1.30886 20.9011 1.47237 20.9011 1.64288Z" fill="#5F6FBF" stroke="#5F6FBF" stroke-width="0.2"/>
<path d="M3.73257 12.7857C2.99434 12.7857 2.27268 12.5657 1.65886 12.1536C1.04505 11.7416 0.566635 11.1559 0.284126 10.4706C0.00161725 9.7854 -0.0723 9.03137 0.0717219 8.30392C0.215744 7.57646 0.571236 6.90825 1.09324 6.38379C1.61525 5.85932 2.28033 5.50216 3.00438 5.35746C3.72843 5.21276 4.47892 5.28703 5.16096 5.57086C5.843 5.8547 6.42594 6.33537 6.83608 6.95207C7.24622 7.56878 7.46513 8.29383 7.46513 9.03553C7.46513 10.0301 7.07188 10.984 6.37189 11.6873C5.6719 12.3906 4.72251 12.7857 3.73257 12.7857ZM3.73257 6.6917C3.27117 6.6917 2.82014 6.82916 2.4365 7.08671C2.05287 7.34425 1.75386 7.71031 1.57729 8.13859C1.40072 8.56686 1.35452 9.03813 1.44454 9.49279C1.53455 9.94745 1.75674 10.3651 2.08299 10.6929C2.40925 11.0207 2.82492 11.2439 3.27745 11.3343C3.72998 11.4248 4.19904 11.3783 4.62531 11.2009C5.05158 11.0235 5.41593 10.7231 5.67226 10.3377C5.9286 9.95225 6.06542 9.4991 6.06542 9.03553C6.06542 8.41391 5.81964 7.81775 5.38214 7.37819C4.94465 6.93864 4.35128 6.6917 3.73257 6.6917Z" fill="#5F6FBF"/>
<path d="M20.2683 12.7857C19.5301 12.7857 18.8084 12.5657 18.1946 12.1536C17.5808 11.7416 17.1024 11.1559 16.8199 10.4706C16.5374 9.7854 16.4635 9.03137 16.6075 8.30392C16.7515 7.57646 17.107 6.90825 17.629 6.38379C18.151 5.85932 18.8161 5.50216 19.5401 5.35746C20.2642 5.21276 21.0147 5.28703 21.6967 5.57086C22.3788 5.8547 22.9617 6.33537 23.3718 6.95207C23.782 7.56878 24.0009 8.29383 24.0009 9.03553C24.0009 10.0301 23.6076 10.984 22.9077 11.6873C22.2077 12.3906 21.2583 12.7857 20.2683 12.7857ZM20.2683 6.6917C19.8069 6.6917 19.3559 6.82916 18.9723 7.08671C18.5886 7.34425 18.2896 7.71031 18.1131 8.13859C17.9365 8.56686 17.8903 9.03813 17.9803 9.49279C18.0703 9.94745 18.2925 10.3651 18.6188 10.6929C18.945 11.0207 19.3607 11.2439 19.8132 11.3343C20.2657 11.4248 20.7348 11.3783 21.1611 11.2009C21.5874 11.0235 21.9517 10.7231 22.208 10.3377C22.4644 9.95225 22.6012 9.4991 22.6012 9.03553C22.6012 8.41391 22.3554 7.81775 21.9179 7.37819C21.4804 6.93864 20.887 6.6917 20.2683 6.6917Z" fill="#5F6FBF"/>
<path d="M12.0145 21.5193C11.2763 21.5193 10.5546 21.2994 9.94079 20.8873C9.32697 20.4752 8.84856 19.8895 8.56605 19.2043C8.28354 18.519 8.20962 17.765 8.35364 17.0376C8.49767 16.3101 8.85316 15.6419 9.37517 15.1174C9.89717 14.593 10.5623 14.2358 11.2863 14.0911C12.0103 13.9464 12.7608 14.0207 13.4429 14.3045C14.1249 14.5883 14.7079 15.069 15.118 15.6857C15.5281 16.3024 15.7471 17.0275 15.7471 17.7692C15.7471 18.7638 15.3538 19.7176 14.6538 20.4209C13.9538 21.1242 13.0044 21.5193 12.0145 21.5193ZM12.0145 15.4253C11.5531 15.4253 11.1021 15.5628 10.7184 15.8203C10.3348 16.0779 10.0358 16.4439 9.85921 16.8722C9.68264 17.3005 9.63645 17.7718 9.72646 18.2264C9.81647 18.6811 10.0387 19.0987 10.3649 19.4265C10.6912 19.7543 11.1068 19.9775 11.5594 20.068C12.0119 20.1584 12.481 20.112 12.9072 19.9346C13.3335 19.7572 13.6978 19.4568 13.9542 19.0713C14.2105 18.6859 14.3473 18.2327 14.3473 17.7692C14.3473 17.1476 14.1016 16.5514 13.6641 16.1118C13.2266 15.6723 12.6332 15.4253 12.0145 15.4253Z" fill="#5F6FBF"/>
</g>
</svg>
