<svg width="48" height="48" viewBox="0 0 48 48" fill="none" xmlns="http://www.w3.org/2000/svg">
<circle opacity="0.5" cx="24" cy="24" r="24" fill="#F8CB88"/>
<path d="M17.2522 18.4983C17.2263 18.5495 17.2005 18.6007 17.1747 18.6518C17.1231 18.7798 17.0715 18.8821 17.0199 19.01C16.9941 19.1123 16.9425 19.1891 16.9167 19.2914C16.8909 19.3682 16.8651 19.4194 16.8393 19.4961C16.7876 19.6496 16.7618 19.7775 16.7102 19.931C16.7102 19.9822 16.6844 20.0078 16.6844 20.059C16.6586 20.1869 16.6328 20.3404 16.607 20.4683C16.607 20.4939 16.5812 20.545 16.5812 20.5706C16.5554 20.7241 16.5296 20.9032 16.5296 21.0823C16.5296 21.1079 16.5296 21.1591 16.5296 21.1846C16.5038 21.3637 16.5038 21.5428 16.5038 21.7219V25.4828C16.5038 26.1991 16.3231 26.8899 15.9618 27.5039L14.3618 30.3437C14.1296 30.7786 14.1296 31.3159 14.3876 31.7508C14.6457 32.1858 15.1102 32.4416 15.6263 32.4416H20.9425C21.2005 33.8999 22.4651 35 23.9876 35C25.5102 35 26.8006 33.8999 27.0328 32.4416H32.3489C32.8393 32.4416 33.3296 32.1858 33.5877 31.7508C33.8457 31.3159 33.8457 30.7786 33.6135 30.3437L32.0135 27.5039C31.678 26.8899 31.4715 26.1735 31.4715 25.4828V21.8754C31.4715 21.6963 31.4715 21.5172 31.4457 21.3382C31.4457 21.287 31.4457 21.2358 31.4457 21.1846C31.4199 21.0311 31.4199 20.8776 31.3941 20.7241C31.3941 20.6474 31.3683 20.5706 31.3425 20.4939C31.3167 20.4171 31.3167 20.3404 31.2909 20.2636C31.2135 19.931 31.136 19.5984 31.007 19.2914V19.2659C30.6715 18.3448 30.1554 17.5006 29.4844 16.7586C29.4586 16.733 29.4328 16.7075 29.407 16.6819C29.3296 16.6051 29.2522 16.5284 29.1747 16.4516C29.1489 16.426 29.1231 16.4004 29.0973 16.3749C28.9683 16.2469 28.8393 16.1446 28.7102 16.0423C28.6328 15.9911 28.5812 15.9399 28.5038 15.8888C28.4522 15.8376 28.4006 15.812 28.3489 15.7608C28.2199 15.6585 28.0909 15.5818 27.936 15.4794C27.9102 15.4794 27.8844 15.4538 27.8844 15.4538C27.3941 15.1468 26.8522 14.891 26.3102 14.7119V14.3026C26.3102 13.0234 25.278 12 23.9876 12C22.6973 12 21.6651 13.0234 21.6651 14.3026V14.6607C21.5876 14.6863 21.5102 14.7119 21.4328 14.7375C21.3812 14.7631 21.3296 14.7631 21.278 14.7887C19.4973 15.505 18.078 16.8354 17.2522 18.4983ZM23.9876 32.9789C23.6005 32.9789 23.2909 32.7742 23.1102 32.4672H24.8909C24.6844 32.7742 24.3747 32.9789 23.9876 32.9789ZM23.7296 14.3026C23.7296 14.1746 23.8586 14.0467 23.9876 14.0467C24.1167 14.0467 24.2457 14.1746 24.2457 14.3026C24.1167 14.3026 23.9876 14.3026 23.8328 14.3026C23.807 14.3026 23.7554 14.3026 23.7296 14.3026Z" fill="#8F5600"/>
<path d="M31.8595 15.2037C31.3434 14.6698 30.7757 14.1625 30.1563 13.7354L29.3047 15.0702C29.8208 15.4439 30.3111 15.8444 30.7498 16.2982C31.524 17.1258 32.1434 18.1136 32.5821 19.2348L34.0015 18.6208C33.4595 17.3394 32.7369 16.1647 31.8595 15.2037Z" fill="#8F5600"/>
<path d="M15.4194 19.2348C16.1161 17.4996 17.2516 16.058 18.6968 15.0702L17.8452 13.7354C16.1677 14.8833 14.8258 16.5919 14 18.6208L15.4194 19.2348Z" fill="#8F5600"/>
</svg>
